<svg width="20" height="20" viewBox="0 0 20 20" fill="none" xmlns="http://www.w3.org/2000/svg">
<path d="M10.1761 8.7522H18.4056C18.4964 9.25921 18.5418 9.74352 18.5418 10.2051C18.5418 11.8472 18.1975 13.3134 17.5089 14.6037C16.8203 15.8939 15.8384 16.9023 14.5633 17.6287C13.2882 18.3552 11.8258 18.7184 10.1761 18.7184C8.98803 18.7184 7.85671 18.4895 6.78214 18.0317C5.70757 17.5739 4.78057 16.9552 4.00113 16.1758C3.22169 15.3963 2.60306 14.4693 2.14523 13.3948C1.68741 12.3202 1.4585 11.1889 1.4585 10.0008C1.4585 8.81273 1.68741 7.68141 2.14523 6.60685C2.60306 5.53228 3.22169 4.60528 4.00113 3.82584C4.78057 3.0464 5.70757 2.42777 6.78214 1.96994C7.85671 1.51212 8.98803 1.2832 10.1761 1.2832C12.4463 1.2832 14.3949 2.04372 16.0219 3.56476L13.6495 5.84633C12.7187 4.94581 11.5609 4.49555 10.1761 4.49555C9.19991 4.49555 8.2975 4.74149 7.46888 5.23337C6.64025 5.72525 5.98378 6.39307 5.49947 7.23683C5.01516 8.08059 4.773 9.00192 4.773 10.0008C4.773 10.9997 5.01516 11.921 5.49947 12.7648C5.98378 13.6086 6.64025 14.2764 7.46888 14.7683C8.2975 15.2601 9.19991 15.5061 10.1761 15.5061C10.8345 15.5061 11.4399 15.4153 11.9923 15.2336C12.5447 15.052 12.9987 14.825 13.3544 14.5526C13.7101 14.2802 14.0203 13.9699 14.2852 13.6218C14.55 13.2737 14.7449 12.9445 14.8698 12.6343C14.9946 12.324 15.0798 12.0289 15.1252 11.7489H10.1761V8.7522Z" fill="#787A80"/>
</svg>
