<svg width="16" height="16" viewBox="0 0 16 16" fill="none" xmlns="http://www.w3.org/2000/svg">
<path fill-rule="evenodd" clip-rule="evenodd" d="M5.33325 8.99967C5.33325 8.63148 5.63173 8.33301 5.99992 8.33301H9.99992C10.3681 8.33301 10.6666 8.63148 10.6666 8.99967C10.6666 9.36786 10.3681 9.66634 9.99992 9.66634H5.99992C5.63173 9.66634 5.33325 9.36786 5.33325 8.99967Z" fill="#9A9CA5"/>
<path fill-rule="evenodd" clip-rule="evenodd" d="M5.33325 11.4997C5.33325 11.1315 5.63173 10.833 5.99992 10.833H7.99992C8.36811 10.833 8.66659 11.1315 8.66659 11.4997C8.66659 11.8679 8.36811 12.1663 7.99992 12.1663H5.99992C5.63173 12.1663 5.33325 11.8679 5.33325 11.4997Z" fill="#9A9CA5"/>
<path fill-rule="evenodd" clip-rule="evenodd" d="M6.02853 1.02827C6.15355 0.903246 6.32312 0.833008 6.49993 0.833008H10.9999C12.4727 0.833008 13.6666 2.02692 13.6666 3.49967L13.6666 12.4997C13.6666 13.9724 12.4727 15.1663 10.9999 15.1663H4.99992C3.52716 15.1663 2.33325 13.9724 2.33325 12.4997L2.33327 4.99967C2.33327 4.82286 2.40351 4.65329 2.52853 4.52827L6.02853 1.02827ZM6.33325 2.60917V4.83301H4.10941L6.33325 2.60917ZM3.6666 6.16634L3.66659 12.4997C3.66658 13.2361 4.26354 13.833 4.99992 13.833H10.9999C11.7363 13.833 12.3333 13.2361 12.3333 12.4997L12.3333 3.49967C12.3333 2.76329 11.7363 2.16634 10.9999 2.16634H7.66658V5.49967C7.66658 5.86786 7.3681 6.16634 6.99991 6.16634H3.6666Z" fill="#9A9CA5"/>
</svg>
