<svg width="430" height="481" viewBox="0 0 430 481" fill="none" xmlns="http://www.w3.org/2000/svg">
<path fill-rule="evenodd" clip-rule="evenodd" d="M48.8384 468.668H311.247V469.901H48.8384V468.668Z" fill="#3FB1B5"/>
<path fill-rule="evenodd" clip-rule="evenodd" d="M292.872 481.001H4.03369V480.047H292.872V481.001Z" fill="#66B0F0"/>
<path d="M291.597 4.92188V52.7712C291.597 62.1421 284.044 69.7545 274.747 69.7545H222.108C231.405 69.7545 238.958 62.1652 238.958 52.7712V4.92188H291.597Z" fill="white"/>
<path fill-rule="evenodd" clip-rule="evenodd" d="M238.384 4.34375H292.171V52.7716C292.171 62.4619 284.361 70.3333 274.747 70.3333H222.108V69.1764C231.089 69.1764 238.384 61.8456 238.384 52.7716V4.34375ZM228.341 69.1764H274.747C283.727 69.1764 291.023 61.823 291.023 52.7716V5.50065H239.532V52.7716C239.532 60.2669 234.882 66.6511 228.341 69.1764Z" fill="#66B0F0"/>
<path d="M267.286 0.294922H263.039V10.4988H267.286V0.294922Z" fill="#FFCF2D"/>
<path d="M276.285 23.1096C275.688 23.1096 275.091 22.8782 274.609 22.4386L272.842 20.8652C272.291 20.3793 271.556 20.3793 271.005 20.8652L269.329 22.3692C268.342 23.2484 266.965 23.2484 265.955 22.3692L264.417 21.0041C263.866 20.5182 263.131 20.5182 262.58 21.0041L261.157 22.2766C260.17 23.1559 258.792 23.1559 257.782 22.2766L256.612 21.2354C256.061 20.7495 255.326 20.7495 254.775 21.2354L253.512 22.3692C252.525 23.2484 251.148 23.2484 250.138 22.3692L248.967 21.328C248.416 20.8421 247.682 20.8421 247.131 21.328C246.901 21.5362 246.534 21.5131 246.327 21.2817C246.121 21.0503 246.144 20.6801 246.373 20.4719C247.36 19.5926 248.738 19.5926 249.748 20.4719L250.918 21.5131C251.469 21.999 252.204 21.999 252.755 21.5131L254.018 20.3793C255.005 19.5001 256.382 19.5001 257.392 20.3793L258.563 21.4205C259.114 21.9064 259.848 21.9064 260.399 21.4205L261.823 20.1479C262.81 19.2687 264.187 19.2687 265.197 20.1479L266.735 21.5131C267.286 21.999 268.021 21.999 268.572 21.5131L270.248 20.0091C271.235 19.1299 272.612 19.1299 273.622 20.0091L275.39 21.5825C275.941 22.0684 276.675 22.0684 277.226 21.5825L279.063 19.9397C280.05 19.0605 281.427 19.0605 282.437 19.9397C282.667 20.1479 282.69 20.5182 282.483 20.7495C282.277 20.9809 281.909 21.0041 281.68 20.7958C281.129 20.3099 280.394 20.3099 279.843 20.7958L278.007 22.4386C277.456 22.8782 276.882 23.1096 276.285 23.1096Z" fill="#66B0F0"/>
<path d="M276.285 32.6184C275.688 32.6184 275.091 32.387 274.609 31.9474L272.842 30.374C272.291 29.8881 271.556 29.8881 271.005 30.374L269.329 31.878C268.342 32.7572 266.965 32.7572 265.955 31.878L264.417 30.5128C263.866 30.0269 263.131 30.0269 262.58 30.5128L261.157 31.7854C260.17 32.6646 258.792 32.6646 257.782 31.7854L256.612 30.7442C256.061 30.2583 255.326 30.2583 254.775 30.7442L253.512 31.878C252.525 32.7572 251.148 32.7572 250.138 31.878L248.967 30.8368C248.416 30.3509 247.682 30.3509 247.131 30.8368C246.901 31.045 246.534 31.0219 246.327 30.7905C246.121 30.5591 246.144 30.1889 246.373 29.9807C247.36 29.1014 248.738 29.1014 249.748 29.9807L250.918 31.0219C251.469 31.5077 252.204 31.5077 252.755 31.0219L254.018 29.8881C255.005 29.0089 256.382 29.0089 257.392 29.8881L258.563 30.9293C259.114 31.4152 259.848 31.4152 260.399 30.9293L261.823 29.6567C262.81 28.7775 264.187 28.7775 265.197 29.6567L266.735 31.0219C267.286 31.5077 268.021 31.5077 268.572 31.0219L270.248 29.5179C271.235 28.6387 272.612 28.6387 273.622 29.5179L275.39 31.0913C275.941 31.5772 276.675 31.5772 277.226 31.0913L279.063 29.4485C280.05 28.5693 281.427 28.5693 282.437 29.4485C282.667 29.6567 282.69 30.0269 282.483 30.2583C282.277 30.4897 281.909 30.5128 281.68 30.3046C281.129 29.8187 280.394 29.8187 279.843 30.3046L278.007 31.9474C277.456 32.4101 276.882 32.6184 276.285 32.6184Z" fill="#66B0F0"/>
<path d="M276.285 42.1281C275.688 42.1281 275.091 41.8968 274.609 41.4572L272.842 39.8838C272.291 39.3979 271.556 39.3979 271.005 39.8838L269.329 41.3877C268.342 42.267 266.965 42.267 265.955 41.3877L264.417 40.0226C263.866 39.5367 263.131 39.5367 262.58 40.0226L261.157 41.2952C260.17 42.1744 258.792 42.1744 257.782 41.2952L256.612 40.254C256.061 39.7681 255.326 39.7681 254.775 40.254L253.512 41.3877C252.525 42.267 251.148 42.267 250.138 41.3877L248.967 40.3465C248.416 39.8606 247.682 39.8606 247.131 40.3465C246.901 40.5548 246.534 40.5316 246.327 40.3003C246.121 40.0689 246.144 39.6987 246.373 39.4904C247.36 38.6112 248.738 38.6112 249.748 39.4904L250.918 40.5316C251.469 41.0175 252.204 41.0175 252.755 40.5316L254.018 39.3979C255.005 38.5186 256.382 38.5186 257.392 39.3979L258.563 40.4391C259.114 40.925 259.848 40.925 260.399 40.4391L261.823 39.1665C262.81 38.2873 264.187 38.2873 265.197 39.1665L266.735 40.5316C267.286 41.0175 268.021 41.0175 268.572 40.5316L270.248 39.0277C271.235 38.1484 272.612 38.1484 273.622 39.0277L275.39 40.601C275.941 41.0869 276.675 41.0869 277.226 40.601L279.063 38.9583C280.05 38.079 281.427 38.079 282.437 38.9583C282.667 39.1665 282.69 39.5367 282.483 39.7681C282.277 39.9995 281.909 40.0226 281.68 39.8144C281.129 39.3285 280.394 39.3285 279.843 39.8144L278.007 41.4572C277.456 41.9199 276.882 42.1281 276.285 42.1281Z" fill="#66B0F0"/>
<path d="M276.285 51.6604C275.688 51.6604 275.091 51.429 274.609 50.9894L272.842 49.416C272.291 48.9301 271.556 48.9301 271.005 49.416L269.329 50.92C268.342 51.7992 266.965 51.7992 265.955 50.92L264.417 49.5548C263.866 49.0689 263.131 49.0689 262.58 49.5548L261.157 50.8274C260.17 51.7067 258.792 51.7067 257.782 50.8274L256.612 49.7862C256.061 49.3003 255.326 49.3003 254.775 49.7862L253.512 50.92C252.525 51.7992 251.148 51.7992 250.138 50.92L248.967 49.8788C248.416 49.3929 247.682 49.3929 247.131 49.8788C246.901 50.087 246.534 50.0639 246.327 49.8325C246.121 49.6011 246.144 49.2309 246.373 49.0227C247.36 48.1434 248.738 48.1434 249.748 49.0227L250.918 50.0639C251.469 50.5498 252.204 50.5498 252.755 50.0639L254.018 48.9301C255.005 48.0509 256.382 48.0509 257.392 48.9301L258.563 49.9713C259.114 50.4572 259.848 50.4572 260.399 49.9713L261.823 48.6987C262.81 47.8195 264.187 47.8195 265.197 48.6987L266.735 50.0639C267.286 50.5498 268.021 50.5498 268.572 50.0639L270.248 48.5599C271.235 47.6807 272.612 47.6807 273.622 48.5599L275.39 50.1333C275.941 50.6192 276.675 50.6192 277.226 50.1333L279.063 48.4905C280.05 47.6112 281.427 47.6112 282.437 48.4905C282.667 48.6987 282.69 49.0689 282.483 49.3003C282.277 49.5317 281.909 49.5548 281.68 49.3466C281.129 48.8607 280.394 48.8607 279.843 49.3466L278.007 50.9894C277.456 51.429 276.882 51.6604 276.285 51.6604Z" fill="#66B0F0"/>
<path d="M345.794 4.9209H308.973V42.0342H345.794V4.9209Z" fill="#FFCF2D"/>
<path d="M317.064 3.33825L314.398 0.00585938L304.676 7.94353L307.342 11.2759L317.064 3.33825Z" fill="#FE5244"/>
<path d="M347.705 11.2571L350.375 7.92773L340.643 0.000951493L337.974 3.33035L347.705 11.2571Z" fill="#FE5244"/>
<path d="M338.013 13.7148H315.677V15.1031H338.013V13.7148Z" fill="white"/>
<path d="M338.013 19.707H315.677V21.0953H338.013V19.707Z" fill="white"/>
<path d="M338.013 25.7227H315.677V27.1109H338.013V25.7227Z" fill="white"/>
<path d="M338.013 31.7158H315.677V33.1041H338.013V31.7158Z" fill="white"/>
<path d="M373.897 404.179C373.364 404.02 373.068 403.94 373.068 403.94L366.614 425.244L342.32 418.819C342.122 418.64 342.024 418.541 342.024 418.541C342.024 418.541 243.64 340.823 238.47 303.525C233.318 266.228 274.527 230.84 274.527 230.84C274.527 230.84 362.411 398.271 373.285 403.741C373.502 403.86 373.719 404 373.897 404.179Z" fill="#E57281"/>
<path d="M295.329 270.007C292.25 286.617 281.435 320.254 270.245 352.798C253.667 334.795 240.286 316.634 238.47 303.505C235.194 279.873 250.568 256.978 262.252 243.411C266.534 239.95 271.153 236.767 276.146 233.923C279.205 239.711 286.29 253.119 295.329 270.007Z" fill="#9A3B82"/>
<path d="M429.118 418.521L392.981 441.894L382.502 440.303L372.851 446.469L375.969 452.914L360.082 463.198C339.023 443.883 342.003 418.76 342.003 418.76L366.594 425.264L373.048 403.96C373.048 403.96 395.133 410.465 411.434 409.908C427.776 409.351 429.118 418.521 429.118 418.521Z" fill="white"/>
<path fill-rule="evenodd" clip-rule="evenodd" d="M372.652 403.223L373.214 403.388L373.048 403.961C373.214 403.388 373.214 403.388 373.214 403.388L373.229 403.392L373.276 403.406C373.317 403.418 373.379 403.436 373.462 403.46C373.626 403.507 373.87 403.576 374.186 403.664C374.819 403.84 375.741 404.091 376.9 404.39C379.218 404.99 382.478 405.783 386.246 406.559C393.792 408.113 403.334 409.588 411.414 409.312C419.698 409.03 424.285 411.213 426.806 413.569C428.061 414.742 428.783 415.939 429.192 416.852C429.396 417.308 429.522 417.694 429.598 417.97C429.636 418.108 429.662 418.218 429.678 418.298C429.686 418.337 429.692 418.369 429.696 418.392C429.698 418.403 429.699 418.413 429.701 418.42L429.702 418.429L429.703 418.432L429.703 418.434C429.703 418.434 429.703 418.435 429.117 418.522L429.703 418.435L429.759 418.816L393.113 442.518L382.632 440.927L373.615 446.688L376.732 453.13L360.019 463.949L359.683 463.641C349.043 453.882 344.474 442.651 342.567 433.864C341.614 429.472 341.325 425.688 341.275 422.999C341.25 421.654 341.284 420.583 341.325 419.844C341.346 419.475 341.368 419.189 341.385 418.994C341.394 418.897 341.401 418.822 341.406 418.771C341.409 418.745 341.411 418.726 341.413 418.712L341.415 418.696L341.415 418.692L341.415 418.69C341.415 418.69 341.415 418.69 342.003 418.76L341.415 418.69L341.496 418.009L366.194 424.542L372.652 403.223ZM342.532 419.517C342.524 419.634 342.516 419.766 342.507 419.911C342.468 420.622 342.434 421.664 342.459 422.977C342.508 425.602 342.79 429.306 343.724 433.609C345.571 442.12 349.965 452.965 360.145 462.449L375.206 452.7L372.086 446.252L382.371 439.68L392.849 441.271L428.446 418.247C428.383 418.026 428.279 417.714 428.113 417.343C427.759 416.554 427.124 415.494 426.001 414.444C423.765 412.354 419.511 410.23 411.454 410.505C403.232 410.786 393.581 409.287 386.009 407.728C382.218 406.948 378.938 406.15 376.606 405.547C375.44 405.245 374.51 404.992 373.871 404.815C373.71 404.77 373.568 404.73 373.444 404.695L366.994 425.988L342.532 419.517Z" fill="#FE5244"/>
<path fill-rule="evenodd" clip-rule="evenodd" d="M388.56 406.023C388.511 405.58 388.437 404.955 388.337 404.211C388.133 402.7 387.822 400.69 387.389 398.707C386.959 396.735 386.399 394.748 385.688 393.305C385.334 392.587 384.919 391.954 384.423 391.532C383.908 391.094 383.274 390.862 382.567 391.05L382.565 391.051L382.564 391.051C381.858 391.243 381.401 391.78 381.129 392.427C380.862 393.064 380.748 393.859 380.737 394.714C380.715 396.43 381.106 398.557 381.745 400.569C382.383 402.58 383.289 404.537 384.338 405.894C384.862 406.571 385.448 407.134 386.087 407.463C386.744 407.802 387.469 407.895 388.193 407.596C389.414 407.091 390.564 405.934 391.584 404.589C392.616 403.226 393.57 401.593 394.381 400.033C395.193 398.469 395.869 396.964 396.341 395.851C396.578 395.294 396.764 394.834 396.891 394.513C396.954 394.352 397.003 394.226 397.036 394.14C397.053 394.097 397.065 394.064 397.074 394.041L397.084 394.015L397.087 394.006L397.087 394.006C397.087 394.006 397.087 394.006 396.533 393.795C395.979 393.585 395.979 393.585 395.979 393.585L395.979 393.586L395.978 393.587L395.976 393.593L395.968 393.616C395.96 393.637 395.948 393.668 395.932 393.71C395.9 393.792 395.853 393.915 395.791 394.071C395.667 394.384 395.485 394.835 395.253 395.382C394.788 396.476 394.126 397.951 393.332 399.479C392.537 401.009 391.618 402.577 390.642 403.865C389.941 404.791 389.238 405.534 388.56 406.023ZM387.429 406.575C387.177 406.604 386.913 406.548 386.626 406.4C386.199 406.181 385.739 405.765 385.272 405.16C384.34 403.954 383.487 402.141 382.873 400.205C382.258 398.272 381.901 396.277 381.921 394.729C381.931 393.952 382.036 393.329 382.22 392.892C382.399 392.464 382.625 392.271 382.871 392.204C383.115 392.139 383.362 392.191 383.659 392.444C383.975 392.713 384.303 393.179 384.627 393.836C385.272 395.144 385.807 397.015 386.233 398.964C386.656 400.903 386.962 402.878 387.163 404.371C387.263 405.117 387.337 405.741 387.386 406.178C387.403 406.335 387.417 406.469 387.429 406.575Z" fill="#FE5244"/>
<path fill-rule="evenodd" clip-rule="evenodd" d="M427.931 415.844L393.54 437.486L382.126 435.635L370.147 442.851L345.763 442.471L345.782 441.277L369.829 441.653L381.889 434.388L393.29 436.237L427.303 414.832L427.931 415.844Z" fill="#FE5244"/>
<path fill-rule="evenodd" clip-rule="evenodd" d="M380.205 416.328L382.455 405.766L383.613 406.016L381.363 416.579L380.205 416.328Z" fill="#FE5244"/>
<path fill-rule="evenodd" clip-rule="evenodd" d="M385.1 417.522L387.35 406.959L388.507 407.21L386.257 417.772L385.1 417.522Z" fill="#FE5244"/>
<path fill-rule="evenodd" clip-rule="evenodd" d="M390.212 418.377L392.462 407.814L393.62 408.065L391.37 418.628L390.212 418.377Z" fill="#FE5244"/>
<path d="M266.179 222.705C266.179 222.705 280.646 229.508 280.646 254.453C280.646 278.562 225.425 426.2 225.425 426.2L208.432 440.722L191.183 421.685C199.61 413.609 175.414 267.601 266.179 222.705Z" fill="#E57281"/>
<path d="M264.641 469.008L221.695 469.048L213.722 462.006L202.295 461.946L201.466 469.068L184.631 469.088C175.474 440.364 191.263 421.665 191.263 421.665L208.393 440.682L225.504 426.181C225.504 426.181 240.346 443.725 254.358 452.12C268.41 460.534 264.641 469.008 264.641 469.008Z" fill="white"/>
<path fill-rule="evenodd" clip-rule="evenodd" d="M191.248 420.762L208.448 439.856L225.573 425.343L225.955 425.794L225.504 426.181C225.955 425.794 225.955 425.794 225.955 425.794L225.965 425.806L225.996 425.843C226.024 425.876 226.066 425.925 226.122 425.989C226.233 426.119 226.398 426.31 226.614 426.557C227.045 427.051 227.677 427.766 228.479 428.651C230.084 430.421 232.37 432.869 235.092 435.578C240.545 441.004 247.717 447.447 254.66 451.607C261.784 455.873 264.479 460.21 265.342 463.57C265.771 465.242 265.739 466.646 265.596 467.639C265.524 468.135 265.424 468.529 265.341 468.803C265.299 468.94 265.261 469.048 265.233 469.123C265.225 469.143 265.219 469.16 265.213 469.175C265.207 469.19 265.202 469.202 265.198 469.212C265.193 469.223 265.189 469.232 265.187 469.239L265.183 469.247L265.181 469.251C265.181 469.252 265.181 469.253 264.64 469.008L265.181 469.253L265.024 469.605L221.473 469.645L213.498 462.602L202.821 462.546L201.993 469.664L184.2 469.685L184.068 469.27C179.444 454.768 181.116 442.779 183.953 434.412C185.37 430.231 187.078 426.957 188.434 424.724C189.112 423.608 189.702 422.751 190.125 422.172C190.336 421.882 190.506 421.661 190.624 421.511C190.683 421.437 190.729 421.38 190.76 421.341C190.776 421.321 190.788 421.306 190.797 421.296L190.807 421.284L190.81 421.28L190.811 421.279C190.811 421.279 190.812 421.279 191.263 421.665L190.812 421.279L191.248 420.762ZM191.294 422.588C191.229 422.675 191.157 422.771 191.079 422.878C190.674 423.433 190.103 424.262 189.444 425.347C188.125 427.518 186.458 430.714 185.073 434.798C182.332 442.882 180.693 454.456 185.064 468.491L200.939 468.472L201.768 461.347L213.946 461.411L221.918 468.451L264.221 468.412C264.287 468.191 264.365 467.871 264.424 467.467C264.548 466.608 264.58 465.367 264.195 463.869C263.43 460.888 260.984 456.782 254.056 452.633C246.986 448.398 239.732 441.872 234.26 436.427C231.521 433.701 229.221 431.238 227.605 429.456C226.797 428.565 226.16 427.844 225.725 427.345C225.617 427.222 225.521 427.112 225.439 427.016L208.338 441.509L191.294 422.588Z" fill="#FE5244"/>
<path fill-rule="evenodd" clip-rule="evenodd" d="M245.279 420.057C246.158 419.935 247.006 420.154 247.74 420.797C248.47 421.435 248.805 422.231 248.803 423.105C248.801 423.95 248.485 424.826 248.007 425.68C247.052 427.386 245.334 429.203 243.516 430.845C241.688 432.496 239.712 434.011 238.198 435.111C237.499 435.619 236.896 436.04 236.449 436.346C236.645 436.365 236.884 436.374 237.169 436.369C237.879 436.358 238.776 436.266 239.8 436.112C241.847 435.803 244.345 435.256 246.775 434.659C249.202 434.063 251.549 433.422 253.291 432.929C254.161 432.683 254.879 432.474 255.38 432.327C255.63 432.253 255.826 432.195 255.959 432.155C256.025 432.135 256.076 432.12 256.11 432.109L256.161 432.094C256.161 432.094 256.161 432.094 256.332 432.665C256.502 433.237 256.502 433.237 256.502 433.237L256.449 433.253C256.429 433.259 256.405 433.266 256.375 433.275C256.352 433.282 256.325 433.29 256.295 433.299C256.161 433.339 255.963 433.398 255.712 433.472C255.208 433.621 254.485 433.831 253.611 434.078C251.862 434.573 249.5 435.219 247.055 435.819C244.613 436.418 242.075 436.976 239.975 437.292C238.927 437.45 237.973 437.55 237.187 437.563C236.436 437.574 235.723 437.511 235.245 437.247C234.594 436.886 234.473 436.104 234.496 435.448C234.521 434.737 234.721 433.86 235.034 432.914C235.663 431.011 236.797 428.683 238.16 426.544C239.519 424.412 241.139 422.413 242.762 421.21C243.573 420.608 244.426 420.175 245.279 420.057ZM235.682 435.428C236.13 435.123 236.762 434.683 237.506 434.143C239.002 433.056 240.94 431.569 242.726 429.956C244.522 428.333 246.119 426.623 246.975 425.093C247.403 424.329 247.617 423.66 247.619 423.102C247.62 422.574 247.433 422.109 246.964 421.698C246.499 421.291 245.997 421.162 245.44 421.239C244.858 421.32 244.19 421.632 243.463 422.171C242.01 423.249 240.482 425.109 239.157 427.189C237.836 429.262 236.749 431.5 236.157 433.291C235.871 434.157 235.711 434.887 235.682 435.428Z" fill="#FE5244"/>
<path fill-rule="evenodd" clip-rule="evenodd" d="M182.045 444.19L182.677 443.181L202.683 455.899H216.72L225.581 463.398H264.976V464.592H225.15L216.289 457.092H202.34L182.045 444.19Z" fill="#FE5244"/>
<path fill-rule="evenodd" clip-rule="evenodd" d="M223.546 439.484L231.125 431.846L231.962 432.69L224.384 440.328L223.546 439.484Z" fill="#FE5244"/>
<path fill-rule="evenodd" clip-rule="evenodd" d="M227.019 443.164L234.598 435.525L235.435 436.369L227.856 444.008L227.019 443.164Z" fill="#FE5244"/>
<path fill-rule="evenodd" clip-rule="evenodd" d="M230.849 446.665L238.427 439.026L239.265 439.87L231.686 447.509L230.849 446.665Z" fill="#FE5244"/>
<path d="M266.179 222.704C232.055 239.573 214.175 270.763 204.721 303.525H101.167C74.6621 303.525 54.9065 278.879 60.4918 252.761L68.0901 217.194H248.14C254.811 217.194 261.008 219.223 266.179 222.704Z" fill="#FE5244"/>
<path d="M189.287 256.799L226.568 256.72L221.042 265.85L189.287 256.799Z" fill="#E57281"/>
<path fill-rule="evenodd" clip-rule="evenodd" d="M107.366 216.61C107.686 216.678 107.892 216.994 107.825 217.316L106.384 224.278C106.384 224.278 106.384 224.278 106.384 224.278C102.987 240.717 115.417 256.143 132.073 256.143H226.245C236.18 242.274 249.147 230.362 266.115 221.97C266.408 221.825 266.763 221.947 266.907 222.243C267.051 222.539 266.93 222.896 266.636 223.041C249.76 231.388 236.886 243.255 227.029 257.088L226.852 257.337H132.073C114.665 257.337 101.675 241.214 105.225 224.035L106.666 217.073C106.733 216.75 107.046 216.543 107.366 216.61Z" fill="white"/>
<path fill-rule="evenodd" clip-rule="evenodd" d="M188.719 256.615C188.81 256.298 189.138 256.115 189.452 256.206L221.55 265.49L221.158 266.155C214.262 277.858 209.188 290.64 205.429 303.672C205.337 303.989 205.009 304.171 204.695 304.079C204.381 303.987 204.2 303.656 204.292 303.339C208.001 290.479 212.99 277.838 219.75 266.211L189.125 257.353C188.811 257.262 188.629 256.932 188.719 256.615Z" fill="white"/>
<path d="M43.894 121.654L62.8601 196.647H27.4737C6.86949 196.647 -6.39299 174.587 3.15916 156.187L30.3354 103.811C38.0324 88.9917 53.2488 79.7022 69.8466 79.7022H76.2608C54.4724 79.6823 38.5061 100.37 43.894 121.654Z" fill="#3FB1B5"/>
<path d="M262.291 102.199C273.442 102.199 282.718 100.707 284.968 98.6186L250.371 174.208C244.115 187.894 230.517 196.646 215.576 196.646C211.195 196.646 206.893 195.891 202.827 194.438C198.762 192.986 194.933 190.858 191.518 188.073L169.71 170.329C169.71 170.329 167.539 183.199 152.047 186.482V217.155H68.0708L43.8944 121.634C38.5065 100.349 54.4728 79.6416 76.2612 79.6416H135.054C140.245 79.6416 145.356 80.298 150.29 81.5711C163.79 85.0323 175.907 93.0289 184.473 104.487L213.208 142.918L239.023 97.445C239.023 97.4847 239.003 97.5444 239.003 97.5842C239.023 100.23 249.463 102.199 262.291 102.199Z" fill="#3FB1B5"/>
<path fill-rule="evenodd" clip-rule="evenodd" d="M43.5544 121.074C43.8718 120.995 44.1928 121.19 44.2714 121.51L62.8429 197.1C62.9215 197.42 62.7279 197.743 62.4105 197.822C62.0931 197.902 61.772 197.707 61.6934 197.387L43.122 121.797C43.0434 121.477 43.237 121.153 43.5544 121.074Z" fill="white"/>
<path fill-rule="evenodd" clip-rule="evenodd" d="M153.003 153.205C153.241 152.979 153.616 152.991 153.84 153.231L170.339 170.935C170.563 171.175 170.551 171.553 170.313 171.779C170.074 172.004 169.7 171.992 169.476 171.752L152.976 154.048C152.753 153.808 152.764 153.43 153.003 153.205Z" fill="white"/>
<path d="M285.481 97.5042L284.968 98.6182C282.718 100.727 273.443 102.199 262.292 102.199C249.464 102.199 239.023 100.229 239.023 97.6236C239.023 97.5838 239.023 97.5241 239.043 97.4843C239.398 94.9381 249.701 92.75 262.312 92.75C274.903 92.75 285.126 94.9381 285.481 97.5042C285.481 97.4843 285.481 97.4843 285.481 97.5042Z" fill="#FE5244"/>
<path d="M295.821 59.3118C295.821 60.4457 295.545 61.5596 295.032 62.5343C294.519 63.509 293.769 64.3644 292.841 65.0208L292.387 65.3391L288.854 84.336C288.282 87.4192 286.466 90.1444 283.842 91.8352L279.006 94.9384L275.178 97.405L273.401 101.682C270.105 102.02 266.336 102.219 262.31 102.219C258.244 102.219 254.415 102.02 251.08 101.662V72.2018C251.08 70.9287 251.356 69.6755 251.889 68.5218L258.323 54.5576C258.323 54.5576 265.349 56.3081 262.112 65.0009C259.172 72.8981 265.882 70.8691 269.652 69.4567C273.026 68.1836 287.769 60.6247 293.532 57.8597C294.598 57.3425 295.821 58.1382 295.821 59.3118Z" fill="#E57281"/>
<path fill-rule="evenodd" clip-rule="evenodd" d="M289.755 76.6267C290.023 76.6772 290.2 76.937 290.15 77.207C289.552 80.4258 287.657 83.2495 284.917 85.014L276.253 90.584C276.023 90.7317 275.718 90.6637 275.572 90.4322C275.425 90.2006 275.493 89.8932 275.722 89.7455L284.386 84.1759C286.896 82.5588 288.632 79.9718 289.18 77.0241C289.23 76.7541 289.487 76.5762 289.755 76.6267Z" fill="#9A3B82"/>
<path fill-rule="evenodd" clip-rule="evenodd" d="M291.176 68.5701C291.444 68.6206 291.62 68.8804 291.57 69.1504C290.973 72.3692 289.077 75.1929 286.338 76.9574L277.674 82.5274C277.444 82.6751 277.139 82.6071 276.993 82.3755C276.846 82.144 276.913 81.8365 277.143 81.6888L285.807 76.1193C285.807 76.1192 285.807 76.1192 285.807 76.1191C285.807 76.1191 285.807 76.1191 285.807 76.1191C288.317 74.5019 290.053 71.915 290.6 68.9675C290.65 68.6975 290.908 68.5196 291.176 68.5701Z" fill="#9A3B82"/>
<path fill-rule="evenodd" clip-rule="evenodd" d="M292.172 65.2915C292.318 65.5234 292.25 65.8307 292.02 65.9778L278.086 74.8895C277.856 75.0366 277.551 74.9679 277.405 74.736C277.259 74.5041 277.328 74.1968 277.558 74.0497L291.491 65.138C291.721 64.9909 292.026 65.0596 292.172 65.2915Z" fill="#9A3B82"/>
<path d="M279.757 94.4409L278.988 94.9382L275.159 97.4048L273.383 101.682C270.087 102.02 266.317 102.219 262.291 102.219C258.226 102.219 254.397 102.02 251.062 101.662V93.3866C254.397 92.9888 258.226 92.77 262.291 92.77C269.258 92.7501 275.494 93.4065 279.757 94.4409Z" fill="#9A3B82"/>
<path d="M148.456 81.1142C145.594 84.9932 134.937 94.1236 99.0569 94.1236C52.8948 94.1236 82.4393 79.7218 82.4393 79.7218L102.017 46.7607L123.016 59.7502V70.1935C123.016 75.4649 127.259 79.7218 132.47 79.7218H133.831C138.726 79.7019 143.778 79.9207 148.456 81.1142Z" fill="#E57281"/>
<path d="M122.997 59.7297V62.3952L82.4204 79.7013L101.998 46.7402L122.997 59.7297Z" fill="#9A3B82"/>
<path d="M124.1 61.0218H128.561C132.666 61.0218 136.001 57.6601 136.001 53.5226V28.4785H109.377V46.1824C109.377 54.3779 115.969 61.0218 124.1 61.0218Z" fill="#E57281"/>
<path fill-rule="evenodd" clip-rule="evenodd" d="M131.849 49.831L131.848 49.8306L131.848 49.83L131.848 49.8292C131.848 49.829 131.848 49.8291 131.848 49.8294C131.848 49.8294 131.848 49.8294 131.848 49.8294M131.848 49.8294C131.848 49.8295 131.848 49.8296 131.848 49.8298C131.849 49.831 131.851 49.834 131.853 49.8387C131.859 49.8481 131.87 49.8641 131.884 49.8858C131.914 49.9292 131.961 49.9951 132.027 50.0761C132.159 50.2383 132.365 50.459 132.652 50.6809C133.222 51.121 134.12 51.5729 135.429 51.5729C135.701 51.5729 135.922 51.7956 135.922 52.0702C135.922 52.3449 135.701 52.5675 135.429 52.5675C133.875 52.5675 132.77 52.0248 132.052 51.4703C131.695 51.1948 131.436 50.9183 131.264 50.7075C131.178 50.602 131.114 50.5125 131.07 50.4471C131.047 50.4144 131.03 50.3876 131.018 50.3679C131.012 50.358 131.007 50.3499 131.003 50.3436L130.998 50.3356L130.997 50.3327L130.996 50.3315L130.996 50.331C130.995 50.3307 130.995 50.3305 131.422 50.081" fill="#73325A"/>
<path d="M132.842 44.0544C133.365 44.0544 133.789 43.2261 133.789 42.2044C133.789 41.1827 133.365 40.3545 132.842 40.3545C132.319 40.3545 131.895 41.1827 131.895 42.2044C131.895 43.2261 132.319 44.0544 132.842 44.0544Z" fill="#73325A"/>
<path d="M114.451 31.0849C114.451 31.0849 136.417 44.4523 143.561 32.8155C149.837 22.6109 122.029 17.3594 112.319 17.3196C101.76 17.2798 87.7678 21.9942 88.0046 37.6492C88.202 50.5392 88.7348 69.3969 81.1562 66.1147C54.1971 54.458 30.2378 66.6319 30.1589 89.826C30.0799 113.02 56.7825 115.188 57.4535 109.201C58.1443 103.233 40.8754 104.606 43.2042 120.102C45.5133 135.598 55.8154 154.972 79.3406 154.972C107.76 154.992 125.858 117.277 108.273 113.438C94.7937 110.494 122.009 136.711 130.081 109.459C138.765 80.1187 107.385 70.5108 106.615 52.7871C105.846 35.0633 114.451 31.0849 114.451 31.0849Z" fill="#FFCF2D"/>
<path fill-rule="evenodd" clip-rule="evenodd" d="M95.8453 21.1819C100.74 17.982 106.982 16.8024 112.321 16.8225C117.229 16.8426 126.663 18.1742 134.097 20.7864C137.806 22.0893 141.087 23.7341 143.045 25.7468C144.031 26.7595 144.706 27.8912 144.906 29.1427C145.107 30.4022 144.816 31.72 143.981 33.0774C142.099 36.142 139.237 37.5507 136.059 37.9481C132.9 38.3433 129.41 37.7438 126.188 36.7914C122.96 35.8372 119.964 34.5173 117.778 33.4386C116.684 32.8987 115.79 32.418 115.17 32.0719C114.859 31.8987 114.617 31.7592 114.452 31.6626C114.448 31.6601 114.443 31.6577 114.439 31.6553C114.409 31.6732 114.375 31.6932 114.339 31.7155C114.123 31.848 113.808 32.0599 113.429 32.3698C112.672 32.9893 111.656 34.0019 110.659 35.5594C108.668 38.6695 106.728 43.9895 107.109 52.7655C107.295 57.046 109.329 60.8704 112.22 64.6919C113.665 66.601 115.313 68.4961 117.036 70.4399C117.33 70.7707 117.625 71.1031 117.922 71.437C119.366 73.0608 120.845 74.7237 122.273 76.4486C125.715 80.6092 128.894 85.1717 130.655 90.5633C132.421 95.9667 132.753 102.173 130.554 109.602C128.509 116.508 125.216 120.13 121.559 121.625C119.626 122.415 117.625 122.596 115.703 122.38C115.786 126.427 114.251 131.243 111.482 135.908C105.541 145.918 93.7712 155.48 79.3405 155.47C67.4253 155.47 58.8353 150.556 52.9431 143.673C47.063 136.804 43.8812 127.992 42.7166 120.176C42.1511 116.413 42.7095 113.422 43.9162 111.139C43.7253 111.068 43.5344 110.995 43.3436 110.919C36.4413 108.165 29.6254 101.663 29.6657 89.8245C29.7058 78.0332 35.8275 69.0188 45.366 64.4523C54.8893 59.8931 67.7699 59.7856 81.351 65.6579L81.3513 65.658C82.2199 66.0342 82.9161 66.0706 83.4858 65.8887C84.0593 65.7057 84.5778 65.2782 85.0429 64.5857C85.9869 63.1803 86.6142 60.8283 87.0076 57.8805C87.7444 52.36 87.6285 45.0504 87.5298 38.8243C87.5236 38.4307 87.5174 38.0414 87.5115 37.657C87.3903 29.6485 90.9228 24.4 95.8453 21.1819ZM44.8629 111.466C43.719 113.55 43.1415 116.363 43.6923 120.027L43.6924 120.028C44.8368 127.708 47.9607 136.331 53.6902 143.023C59.4075 149.702 67.731 154.475 79.3408 154.475H79.3411C93.33 154.485 104.818 145.199 110.635 135.397C113.388 130.758 114.837 126.059 114.712 122.233C113.369 121.985 112.078 121.555 110.893 121.018C109.32 120.304 107.918 119.395 106.804 118.452C105.698 117.515 104.849 116.52 104.416 115.624C104.2 115.177 104.069 114.717 104.097 114.281C104.126 113.823 104.33 113.418 104.722 113.135C105.095 112.867 105.597 112.737 106.187 112.711C106.782 112.685 107.511 112.763 108.378 112.952C110.671 113.453 112.415 114.515 113.627 116.011C114.81 117.472 115.459 119.313 115.648 121.372C117.482 121.602 119.377 121.443 121.188 120.703C124.482 119.357 127.619 116.037 129.609 109.317C131.752 102.076 131.418 96.0784 129.718 90.8744C128.014 85.6586 124.928 81.2101 121.515 77.0856C120.1 75.3755 118.635 73.7282 117.191 72.1046C116.893 71.7697 116.596 71.4358 116.3 71.1026C114.576 69.158 112.906 67.2377 111.436 65.2951C108.499 61.4134 106.322 57.3905 106.123 52.809C105.734 43.8613 107.711 38.3302 109.83 35.0201C110.888 33.3676 111.976 32.2778 112.807 31.5975C113.223 31.2575 113.575 31.0201 113.826 30.8658C113.952 30.7887 114.053 30.7324 114.124 30.6944C114.16 30.6754 114.188 30.661 114.208 30.6509C114.218 30.6458 114.227 30.6418 114.233 30.6389L114.241 30.6352L114.244 30.6335C114.245 30.6333 114.245 30.6331 114.451 31.0851L114.245 30.6331L114.482 30.5234L114.706 30.6594L114.699 30.6705C114.706 30.6594 114.706 30.6594 114.706 30.6594L114.706 30.6597L114.709 30.6613L114.72 30.6679C114.73 30.674 114.745 30.6831 114.765 30.6952C114.806 30.7194 114.867 30.7554 114.947 30.8022C115.107 30.8957 115.343 31.032 115.648 31.2016C116.256 31.541 117.135 32.0138 118.212 32.5453C120.368 33.6093 123.309 34.904 126.466 35.837C129.628 36.7719 132.97 37.3323 135.938 36.9611C138.889 36.592 141.451 35.3078 143.142 32.554L143.142 32.5537C143.876 31.3601 144.088 30.2816 143.932 29.3006C143.774 28.3115 143.231 27.3584 142.341 26.4432C140.547 24.5999 137.446 23.0161 133.773 21.7255C126.445 19.1509 117.12 17.8368 112.318 17.8171M114.639 121.206C114.435 119.409 113.849 117.858 112.862 116.64C111.809 115.34 110.272 114.383 108.169 113.924C107.352 113.746 106.713 113.683 106.23 113.704C105.742 113.726 105.454 113.831 105.296 113.944C105.159 114.043 105.093 114.167 105.081 114.345C105.069 114.545 105.128 114.827 105.303 115.189C105.652 115.911 106.389 116.8 107.439 117.69C108.483 118.574 109.808 119.435 111.298 120.111C112.35 120.588 113.476 120.97 114.639 121.206ZM44.8629 111.466C47.7907 112.408 50.6571 112.7 52.9466 112.456C54.2866 112.313 55.4593 111.984 56.3342 111.468C57.2118 110.951 57.8366 110.212 57.9439 109.258C58.0449 108.384 57.8154 107.619 57.3288 107.009C56.85 106.409 56.1469 105.988 55.3385 105.733C53.7262 105.225 51.5891 105.34 49.537 106.139C47.6283 106.882 45.7616 108.229 44.429 110.268C44.1884 110.182 43.9476 110.09 43.7068 109.994C37.1098 107.362 30.6138 101.184 30.6525 89.8279C30.6913 78.4251 36.5888 69.7555 45.7894 65.3507C55.0052 60.9387 67.5838 60.7875 80.9617 66.5718C81.9878 67.0162 82.9327 67.1085 83.7837 66.8369C84.6308 66.5666 85.3125 65.9586 85.8601 65.1433C86.9415 63.5333 87.5896 60.9806 87.9856 58.0131C88.7327 52.4148 88.6154 45.0345 88.5169 38.8326C88.5105 38.4304 88.5042 38.0332 88.4982 37.6419C88.3825 29.9954 91.728 25.0591 96.3823 22.0163C101.065 18.9552 107.098 17.7975 112.318 17.8171M45.4021 110.594C46.5982 108.869 48.2244 107.716 49.8927 107.067C51.7804 106.331 53.6854 106.254 55.0439 106.682C55.721 106.896 56.2355 107.226 56.5598 107.632C56.8761 108.029 57.0351 108.526 56.9637 109.143L56.9635 109.145C56.9027 109.687 56.5464 110.191 55.8358 110.61C55.1223 111.031 54.0995 111.333 52.843 111.467C50.7638 111.688 48.1281 111.438 45.4021 110.594Z" fill="white"/>
<path fill-rule="evenodd" clip-rule="evenodd" d="M128.621 42.3244H112.912V41.1309H128.621V42.3244Z" fill="#3FB1B5"/>
<path fill-rule="evenodd" clip-rule="evenodd" d="M133.457 37.1525C131.45 37.1525 129.589 39.321 129.589 42.3244C129.589 45.3279 131.45 47.4964 133.457 47.4964C135.465 47.4964 137.325 45.3279 137.325 42.3244C137.325 39.321 135.465 37.1525 133.457 37.1525ZM128.405 42.3244C128.405 38.956 130.538 35.959 133.457 35.959C136.376 35.959 138.51 38.9559 138.51 42.3244C138.51 45.6929 136.376 48.6899 133.457 48.6899C130.538 48.6899 128.405 45.6929 128.405 42.3244Z" fill="#3FB1B5"/>
<path fill-rule="evenodd" clip-rule="evenodd" d="M109.103 13.9181C106.925 13.9181 105.175 15.6981 105.175 17.8766V34.6257H103.991V17.8766C103.991 15.0424 106.268 12.7246 109.103 12.7246H114.037C116.849 12.7246 119.148 15.0191 119.148 17.8766H117.964C117.964 15.6816 116.198 13.9181 114.037 13.9181H109.103Z" fill="#66B0F0"/>
<path d="M109.34 53.0659H99.8469C97.4194 53.0659 95.4458 51.0767 95.4458 48.63V39.0619C95.4458 36.6152 97.4194 34.626 99.8469 34.626H109.34C111.767 34.626 113.741 36.6152 113.741 39.0619V48.63C113.721 51.0767 111.767 53.0659 109.34 53.0659Z" fill="white"/>
<path fill-rule="evenodd" clip-rule="evenodd" d="M99.8467 35.2228C97.7462 35.2228 96.0377 36.9448 96.0377 39.062V48.63C96.0377 50.7472 97.7462 52.4692 99.8467 52.4692H109.34C111.435 52.4692 113.13 50.7518 113.149 48.6275V39.062C113.149 36.9448 111.44 35.2228 109.34 35.2228H99.8467ZM94.8535 39.062C94.8535 36.2857 97.0922 34.0293 99.8467 34.0293H109.34C112.094 34.0293 114.333 36.2857 114.333 39.062V48.6324L114.333 48.6349C114.31 51.403 112.098 53.6627 109.34 53.6627H99.8467C97.0922 53.6627 94.8535 51.4063 94.8535 48.63V39.062Z" fill="#66B0F0"/>
<path d="M106.873 49.9032H102.235C100.242 49.9032 98.6035 48.272 98.6035 46.243V41.5684C98.6035 39.5593 100.222 37.9082 102.235 37.9082H106.873C108.866 37.9082 110.504 39.5394 110.504 41.5684V46.243C110.504 48.272 108.886 49.9032 106.873 49.9032Z" fill="white"/>
<path fill-rule="evenodd" clip-rule="evenodd" d="M102.235 38.505C100.551 38.505 99.1959 39.8868 99.1959 41.5684V46.243C99.1959 47.9403 100.567 49.3064 102.235 49.3064H106.873C108.559 49.3064 109.912 47.9424 109.912 46.243V41.5684C109.912 39.8711 108.542 38.505 106.873 38.505H102.235ZM98.0117 41.5684C98.0117 39.2319 99.8931 37.3115 102.235 37.3115H106.873C109.191 37.3115 111.097 39.2077 111.097 41.5684V46.243C111.097 48.6016 109.213 50.4999 106.873 50.4999H102.235C99.917 50.4999 98.0117 48.6037 98.0117 46.243V41.5684Z" fill="#66B0F0"/>
<path fill-rule="evenodd" clip-rule="evenodd" d="M99.9849 49.0873L108.234 38.0273L109.181 38.7446L100.931 49.8045L99.9849 49.0873Z" fill="#66B0F0"/>
<path fill-rule="evenodd" clip-rule="evenodd" d="M98.3682 47.1955L105.512 37.6475L106.458 38.3661L99.3136 47.9142L98.3682 47.1955Z" fill="#66B0F0"/>
<path fill-rule="evenodd" clip-rule="evenodd" d="M102.688 49.5433L109.832 39.9951L110.778 40.7138L103.633 50.262L102.688 49.5433Z" fill="#66B0F0"/>
<path fill-rule="evenodd" clip-rule="evenodd" d="M105.552 49.5441L110.032 43.5566L110.977 44.2753L106.497 50.2628L105.552 49.5441Z" fill="#66B0F0"/>
<path fill-rule="evenodd" clip-rule="evenodd" d="M98.1509 43.5952L102.611 37.6475L103.556 38.3671L99.0955 44.3148L98.1509 43.5952Z" fill="#66B0F0"/>
<path fill-rule="evenodd" clip-rule="evenodd" d="M96.9645 325.804V314.844H98.1486V325.804C98.1486 331.425 93.6206 335.989 88.0439 335.989H63.6504V334.795H88.0439C92.9666 334.795 96.9645 330.766 96.9645 325.804Z" fill="#66B0F0"/>
<path fill-rule="evenodd" clip-rule="evenodd" d="M106.064 415.518V314.964H107.249V415.518H106.064Z" fill="#66B0F0"/>
<path fill-rule="evenodd" clip-rule="evenodd" d="M101.663 416.114C80.2415 416.114 63.0792 430.396 63.0792 447.763H61.895C61.895 429.522 79.823 414.921 101.663 414.921H111.491C133.331 414.921 151.259 429.522 151.259 447.763H150.075C150.075 430.396 132.912 416.114 111.491 416.114H101.663Z" fill="#66B0F0"/>
<path d="M201.564 316.495H58.2816C51.0978 316.495 45.2954 310.627 45.2954 303.406H204.958L201.564 316.495Z" fill="#FFCF2D"/>
<path d="M61.6189 469.086C67.4613 469.086 72.1974 464.312 72.1974 458.424C72.1974 452.535 67.4613 447.762 61.6189 447.762C55.7766 447.762 51.0405 452.535 51.0405 458.424C51.0405 464.312 55.7766 469.086 61.6189 469.086Z" fill="#FFCF2D"/>
<path d="M56.2298 338.117H77.4656C79.2023 338.117 80.6036 336.705 80.6036 334.954V334.715C80.6036 332.965 79.2023 331.553 77.4656 331.553H56.2298C54.493 331.553 53.0918 332.965 53.0918 334.715V334.954C53.0918 336.705 54.493 338.117 56.2298 338.117Z" fill="#FFCF2D"/>
<path fill-rule="evenodd" clip-rule="evenodd" d="M11.8987 211.287C9.27499 203.858 14.7309 196.049 22.5613 196.049H97.3009C104.578 196.049 111.057 200.664 113.509 207.564L113.509 207.565L147.796 304.401H44.8797L11.8987 211.287ZM13.0141 210.887C10.6649 204.233 15.5505 197.242 22.5613 197.242H97.3009C104.076 197.242 110.11 201.539 112.394 207.966L146.116 303.207H45.7143L13.0143 210.887C13.0143 210.887 13.0142 210.887 13.0141 210.887Z" fill="#FFCF2D"/>
<path fill-rule="evenodd" clip-rule="evenodd" d="M15.062 199.609H90.7292C97.7691 199.609 104.031 204.065 106.404 210.747L106.405 210.747L139.547 304.401H50.3299V303.207H137.867L105.289 211.149C103.084 204.941 97.2676 200.803 90.7292 200.803H15.062V199.609Z" fill="#FFCF2D"/>
<path d="M150.489 469.086C156.331 469.086 161.067 464.312 161.067 458.424C161.067 452.535 156.331 447.762 150.489 447.762C144.646 447.762 139.91 452.535 139.91 458.424C139.91 464.312 144.646 469.086 150.489 469.086Z" fill="#FFCF2D"/>
</svg>
