<svg width="13" height="15" viewBox="0 0 13 15" fill="none" xmlns="http://www.w3.org/2000/svg">
<path fill-rule="evenodd" clip-rule="evenodd" d="M3.9668 8.50065C3.9668 8.13246 4.26527 7.83398 4.63346 7.83398H8.63346C9.00165 7.83398 9.30013 8.13246 9.30013 8.50065C9.30013 8.86884 9.00165 9.16732 8.63346 9.16732H4.63346C4.26527 9.16732 3.9668 8.86884 3.9668 8.50065Z" fill="#424551"/>
<path fill-rule="evenodd" clip-rule="evenodd" d="M3.9668 11.0007C3.9668 10.6325 4.26527 10.334 4.63346 10.334H6.63346C7.00165 10.334 7.30013 10.6325 7.30013 11.0007C7.30013 11.3688 7.00165 11.6673 6.63346 11.6673H4.63346C4.26527 11.6673 3.9668 11.3688 3.9668 11.0007Z" fill="#424551"/>
<path fill-rule="evenodd" clip-rule="evenodd" d="M4.66207 0.529247C4.7871 0.404222 4.95667 0.333984 5.13348 0.333984H9.63348C11.1062 0.333984 12.3001 1.52789 12.3001 3.00065L12.3001 12.0007C12.3001 13.4734 11.1062 14.6673 9.63348 14.6673H3.63346C2.1607 14.6673 0.966793 13.4734 0.966797 12.0006L0.966813 4.50065C0.966814 4.32384 1.03705 4.15427 1.16208 4.02925L4.66207 0.529247ZM4.96679 2.11015V4.33398H2.74296L4.96679 2.11015ZM2.30014 5.66732L2.30013 12.0006C2.30013 12.737 2.89708 13.334 3.63346 13.334H9.63348C10.3699 13.334 10.9668 12.737 10.9668 12.0007L10.9668 3.00065C10.9668 2.26427 10.3699 1.66732 9.63348 1.66732H6.30013V5.00065C6.30013 5.36884 6.00165 5.66732 5.63346 5.66732H2.30014Z" fill="#424551"/>
</svg>
