<svg width="16" height="15" viewBox="0 0 16 15" fill="none" xmlns="http://www.w3.org/2000/svg">
<path fill-rule="evenodd" clip-rule="evenodd" d="M4.99674 0.333984C5.36493 0.333984 5.66341 0.632461 5.66341 1.00065V1.33399L10.3301 1.334V1.00065C10.3301 0.632462 10.6286 0.333985 10.9967 0.333984C11.3649 0.333984 11.6634 0.632461 11.6634 1.00065V1.334L12.4967 1.33401C13.9695 1.33401 15.1634 2.52792 15.1634 4.00067V12.0006C15.1634 13.4734 13.9695 14.6673 12.4967 14.6673L3.49674 14.6673C2.02398 14.6673 0.830078 13.4734 0.830078 12.0007L0.830078 5.50078L0.830078 4.00065C0.830079 2.52789 2.02399 1.33398 3.49675 1.33399L4.33008 1.33399V1.00065C4.33008 0.632461 4.62855 0.333984 4.99674 0.333984ZM4.33008 2.66732L3.49675 2.66732C2.76037 2.66732 2.16341 3.26427 2.16341 4.00065V4.83398H13.8301V4.00067C13.8301 3.26429 13.2331 2.66734 12.4967 2.66734L11.6634 2.66734V3.00065C11.6634 3.36884 11.3649 3.66732 10.9967 3.66732C10.6286 3.66732 10.3301 3.36884 10.3301 3.00065V2.66734L5.66341 2.66733V3.00065C5.66341 3.36884 5.36493 3.66732 4.99674 3.66732C4.62855 3.66732 4.33008 3.36884 4.33008 3.00065V2.66732ZM13.8301 6.16732H2.16341L2.16341 12.0007C2.16341 12.737 2.76036 13.334 3.49674 13.334L12.4967 13.334C13.2331 13.334 13.8301 12.737 13.8301 12.0006V6.16732Z" fill="#787A80"/>
</svg>
