<svg width="16" height="15" viewBox="0 0 16 15" fill="none" xmlns="http://www.w3.org/2000/svg">
<path d="M8.66309 3.83268C8.66309 3.46449 8.36461 3.16602 7.99642 3.16602C7.62823 3.16602 7.32975 3.46449 7.32975 3.83268V7.49935C7.32975 7.67616 7.39999 7.84573 7.52501 7.97075L9.52501 9.97075C9.78536 10.2311 10.2075 10.2311 10.4678 9.97075C10.7282 9.7104 10.7282 9.28829 10.4678 9.02794L8.66309 7.22321V3.83268Z" fill="#787A80"/>
<path fill-rule="evenodd" clip-rule="evenodd" d="M7.99642 0.166016C3.94633 0.166016 0.663086 3.44926 0.663086 7.49935C0.663086 11.5494 3.94633 14.8327 7.99642 14.8327C12.0465 14.8327 15.3298 11.5494 15.3298 7.49935C15.3298 3.44926 12.0465 0.166016 7.99642 0.166016ZM1.99642 7.49935C1.99642 4.18564 4.68271 1.49935 7.99642 1.49935C11.3101 1.49935 13.9964 4.18564 13.9964 7.49935C13.9964 10.8131 11.3101 13.4993 7.99642 13.4993C4.68271 13.4993 1.99642 10.8131 1.99642 7.49935Z" fill="#787A80"/>
</svg>
