<svg width="13" height="17" viewBox="0 0 13 17" fill="none" xmlns="http://www.w3.org/2000/svg">
<path fill-rule="evenodd" clip-rule="evenodd" d="M3.12992 4.76706C3.12992 2.63156 4.86108 0.900391 6.99658 0.900391C9.13208 0.900391 10.8632 2.63156 10.8632 4.76706V7.96706C10.8632 10.1026 9.13208 11.8337 6.99658 11.8337C4.86108 11.8337 3.12992 10.1026 3.12992 7.96706V4.76706ZM6.99658 2.23372C5.59746 2.23372 4.46325 3.36794 4.46325 4.76706V7.96706C4.46325 9.36618 5.59746 10.5004 6.99658 10.5004C8.3957 10.5004 9.52992 9.36618 9.52992 7.96706V4.76706C9.52992 3.36794 8.3957 2.23372 6.99658 2.23372Z" fill="#424551"/>
<path fill-rule="evenodd" clip-rule="evenodd" d="M1.66325 6.23372C2.03144 6.23372 2.32992 6.5322 2.32992 6.90039V7.96706C2.32992 10.5444 4.41925 12.6337 6.99658 12.6337C9.57391 12.6337 11.6632 10.5444 11.6632 7.96706V6.90039C11.6632 6.5322 11.9617 6.23372 12.3299 6.23372C12.6981 6.23372 12.9966 6.5322 12.9966 6.90039V7.96706C12.9966 11.2808 10.3103 13.9671 6.99658 13.9671C3.68287 13.9671 0.996582 11.2808 0.996582 7.96706V6.90039C0.996582 6.5322 1.29506 6.23372 1.66325 6.23372Z" fill="#424551"/>
<path fill-rule="evenodd" clip-rule="evenodd" d="M6.99658 13.1671C7.36477 13.1671 7.66325 13.4655 7.66325 13.8337V14.7671H9.12992C9.49811 14.7671 9.79658 15.0655 9.79658 15.4337C9.79658 15.8019 9.49811 16.1004 9.12992 16.1004H4.86325C4.49506 16.1004 4.19658 15.8019 4.19658 15.4337C4.19658 15.0655 4.49506 14.7671 4.86325 14.7671H6.32992V13.8337C6.32992 13.4655 6.62839 13.1671 6.99658 13.1671Z" fill="#424551"/>
</svg>
