<svg width="16" height="15" viewBox="0 0 16 15" fill="none" xmlns="http://www.w3.org/2000/svg">
<path fill-rule="evenodd" clip-rule="evenodd" d="M11.0266 6.44002C11.7249 6.97368 11.7249 8.02507 11.0266 8.55873L7.97335 10.8924C7.09595 11.5629 5.83035 10.9373 5.83035 9.833V5.16575C5.83035 4.06144 7.09595 3.43581 7.97335 4.1064L11.0266 6.44002ZM10.217 7.49938L7.16369 5.16575L7.16369 9.833L10.217 7.49938Z" fill="#424551"/>
<path fill-rule="evenodd" clip-rule="evenodd" d="M8.31478 1.49935C5.00107 1.49935 2.31478 4.18564 2.31478 7.49935C2.31478 10.8131 5.00107 13.4993 8.31478 13.4993C11.6285 13.4993 14.3148 10.8131 14.3148 7.49935C14.3148 4.18564 11.6285 1.49935 8.31478 1.49935ZM0.981445 7.49935C0.981445 3.44926 4.26469 0.166016 8.31478 0.166016C12.3649 0.166016 15.6481 3.44926 15.6481 7.49935C15.6481 11.5494 12.3649 14.8327 8.31478 14.8327C4.26469 14.8327 0.981445 11.5494 0.981445 7.49935Z" fill="#424551"/>
</svg>
