<svg width="633" height="555" viewBox="0 0 633 555" fill="none" xmlns="http://www.w3.org/2000/svg">
<path d="M409.302 19.918L451.208 60.3535L493.326 288.295H98.2539L409.302 19.918Z" fill="#FFCF2D"/>
<path d="M451.568 60.036L409.535 19.4735L416.565 12.1697C426.92 1.41515 445.575 2.64304 456.333 12.9742C467.09 23.3265 468.974 41.9776 458.62 52.7322L451.568 60.036Z" fill="white"/>
<path d="M451.59 60.925L408.646 19.4945L416.12 11.725C421.16 6.47471 428.339 3.74373 436.343 4.01894C444.009 4.29416 451.462 7.38504 456.799 12.5083C462.135 17.6315 465.502 24.9776 466.052 32.6413C466.624 40.6226 464.147 47.9052 459.107 53.1555L451.59 60.925ZM410.424 19.4522L451.547 59.1255L458.154 52.2875C462.961 47.3124 465.29 40.3685 464.761 32.7472C464.231 25.3799 461.013 18.3513 455.888 13.4398C450.764 8.52824 443.628 5.56438 436.28 5.31034C428.656 5.03512 421.817 7.63908 417.031 12.6141L410.424 19.4522Z" fill="#FFCF2D"/>
<path d="M458.599 53.367C458.43 53.367 458.281 53.3035 458.154 53.1977L416.1 12.6352C415.845 12.3811 415.845 12 416.078 11.746C416.332 11.492 416.735 11.492 416.968 11.7248L459.022 52.2873C459.277 52.5414 459.277 52.9224 459.044 53.1765C458.938 53.3035 458.768 53.367 458.599 53.367Z" fill="#FFCF2D"/>
<path d="M539.828 287.194C539.743 287.194 539.659 287.173 539.574 287.131C539.256 286.983 539.108 286.602 539.256 286.284L598.23 154.773L482.929 14.456V14.4348C480.748 11.4709 477.551 9.56561 473.909 9.03635C470.266 8.50709 466.645 9.45976 463.723 11.7038L459.022 15.3028C458.747 15.5145 458.345 15.4722 458.133 15.1758C457.921 14.9006 457.963 14.4983 458.26 14.2866L462.961 10.6876C466.158 8.25304 470.118 7.2157 474.099 7.7873C478.08 8.3589 481.574 10.4336 483.946 13.6727L599.713 154.583L599.543 154.943L540.4 286.813C540.294 287.046 540.061 287.194 539.828 287.194Z" fill="#3FB1B5"/>
<path d="M597.087 161.865C600.665 161.865 603.566 158.965 603.566 155.387C603.566 151.81 600.665 148.909 597.087 148.909C593.508 148.909 590.607 151.81 590.607 155.387C590.607 158.965 593.508 161.865 597.087 161.865Z" fill="white"/>
<path d="M597.087 162.501C593.169 162.501 589.972 159.304 589.972 155.388C589.972 151.471 593.169 148.274 597.087 148.274C601.004 148.274 604.202 151.471 604.202 155.388C604.202 159.304 601.004 162.501 597.087 162.501ZM597.087 149.545C593.868 149.545 591.242 152.17 591.242 155.388C591.242 158.606 593.868 161.231 597.087 161.231C600.305 161.231 602.931 158.606 602.931 155.388C602.931 152.17 600.305 149.545 597.087 149.545Z" fill="#FFCF2D"/>
<path d="M523.396 271.824H554.969C564.053 271.824 571.401 279.192 571.401 288.252V288.718H506.942V288.252C506.964 279.192 514.311 271.824 523.396 271.824Z" fill="white"/>
<path d="M572.036 289.354H506.307V288.253C506.328 278.853 513.994 271.189 523.396 271.189H554.969C564.371 271.189 572.036 278.853 572.036 288.253V289.354V289.354ZM507.578 288.083H570.766C570.681 279.446 563.629 272.46 554.969 272.46H523.396C514.756 272.46 507.684 279.446 507.578 288.083Z" fill="#FFCF2D"/>
<path d="M370.444 240.64H170.568C163.051 240.64 156.974 234.564 156.974 227.049V87.2818C156.974 79.7663 163.051 73.6904 170.568 73.6904H370.444C377.962 73.6904 384.039 79.7663 384.039 87.2818V227.028C384.06 234.543 377.962 240.64 370.444 240.64Z" fill="white"/>
<path d="M370.444 241.276H170.568C162.712 241.276 156.338 234.903 156.338 227.049V87.2822C156.338 79.428 162.712 73.0557 170.568 73.0557H370.444C378.301 73.0557 384.674 79.428 384.674 87.2822V227.028C384.696 230.818 383.213 234.395 380.524 237.084C377.835 239.794 374.256 241.276 370.444 241.276ZM170.568 74.3259C163.432 74.3259 157.609 80.1478 157.609 87.2822V227.049C157.609 234.184 163.432 240.005 170.568 240.005H370.444C373.917 240.005 377.178 238.651 379.635 236.195C382.07 233.739 383.425 230.479 383.404 227.028V87.2822C383.404 80.1478 377.581 74.3259 370.444 74.3259H170.568Z" fill="#3FB1B5"/>
<path d="M370.572 227.642H172.623C169.679 227.642 167.308 225.249 167.308 222.328V88.6155C167.308 85.6728 169.7 83.3018 172.623 83.3018H370.572C373.515 83.3018 375.887 85.694 375.887 88.6155V222.307C375.908 225.249 373.515 227.642 370.572 227.642Z" fill="#66B0F0"/>
<path d="M370.572 228.277H172.623C169.34 228.277 166.672 225.61 166.672 222.328V88.6159C166.672 85.3345 169.34 82.667 172.623 82.667H370.572C373.854 82.667 376.522 85.3345 376.522 88.6159V222.307C376.543 223.895 375.929 225.398 374.807 226.52C373.663 227.642 372.181 228.277 370.572 228.277ZM172.623 83.9372C170.039 83.9372 167.943 86.0331 167.943 88.6159V222.328C167.943 224.911 170.039 227.007 172.623 227.007H370.572C371.821 227.007 373.007 226.52 373.896 225.631C374.786 224.742 375.252 223.577 375.252 222.328V88.6159C375.252 86.0331 373.155 83.9372 370.572 83.9372H172.623Z" fill="#66B0F0"/>
<path d="M179.716 96.4283H176.582C175.206 96.4283 174.083 95.3062 174.083 93.9302V90.7969C174.083 89.4209 175.206 88.2988 176.582 88.2988H179.716C181.093 88.2988 182.215 89.4209 182.215 90.7969V93.9302C182.194 95.3274 181.093 96.4283 179.716 96.4283ZM176.582 89.5691C175.905 89.5691 175.354 90.1195 175.354 90.7969V93.9302C175.354 94.6076 175.905 95.1581 176.582 95.1581H179.716C180.394 95.1581 180.923 94.6076 180.944 93.909V90.7969C180.944 90.1195 180.394 89.5691 179.716 89.5691H176.582V89.5691Z" fill="white"/>
<path d="M193.967 96.4283H190.833C189.457 96.4283 188.334 95.3062 188.334 93.9302V90.7969C188.334 89.4209 189.457 88.2988 190.833 88.2988H193.967C195.344 88.2988 196.466 89.4209 196.466 90.7969V93.9302C196.466 95.3062 195.344 96.4283 193.967 96.4283ZM190.833 89.5691C190.156 89.5691 189.605 90.1195 189.605 90.7969V93.9302C189.605 94.6076 190.156 95.1581 190.833 95.1581H193.967C194.645 95.1581 195.195 94.6076 195.195 93.9302V90.7969C195.195 90.1195 194.645 89.5691 193.967 89.5691H190.833Z" fill="white"/>
<path d="M208.219 96.4283H205.085C203.708 96.4283 202.586 95.3062 202.586 93.9302V90.7969C202.586 89.4209 203.708 88.2988 205.085 88.2988H208.219C209.595 88.2988 210.717 89.4209 210.717 90.7969V93.9302C210.717 95.3062 209.595 96.4283 208.219 96.4283ZM205.085 89.5691C204.407 89.5691 203.856 90.1195 203.856 90.7969V93.9302C203.856 94.6076 204.407 95.1581 205.085 95.1581H208.219C208.917 95.1581 209.447 94.6288 209.447 93.9302V90.7969C209.447 90.1195 208.896 89.5691 208.219 89.5691H205.085Z" fill="white"/>
<path d="M312.699 288.295H235.112L250.337 240.641H297.453L312.699 288.295Z" fill="white"/>
<path d="M313.567 288.931H234.243L249.871 240.006H297.918L313.567 288.931ZM235.98 287.66H311.83L296.986 241.276H250.802L235.98 287.66Z" fill="#3FB1B5"/>
<path d="M241.21 269.221L250.337 240.641H297.452L241.21 269.221Z" fill="#3FB1B5"/>
<path d="M359.052 127.781H321.338C317.463 127.781 314.308 124.627 314.308 120.752V96.4065C314.308 92.5323 317.463 89.3779 321.338 89.3779H359.052C362.927 89.3779 366.082 92.5323 366.082 96.4065V120.752C366.082 124.627 362.927 127.781 359.052 127.781ZM321.338 90.6482C318.162 90.6482 315.579 93.2309 315.579 96.4065V120.752C315.579 123.928 318.162 126.511 321.338 126.511H359.052C362.228 126.511 364.812 123.928 364.812 120.752V96.4065C364.812 93.2309 362.228 90.6482 359.052 90.6482H321.338Z" fill="white"/>
<path d="M354.499 99.3278H325.722C325.362 99.3278 325.086 99.0526 325.086 98.6927C325.086 98.3328 325.362 98.0576 325.722 98.0576H354.499C354.859 98.0576 355.134 98.3328 355.134 98.6927C355.134 99.0526 354.859 99.3278 354.499 99.3278Z" fill="white"/>
<path d="M354.499 105.891H325.722C325.362 105.891 325.086 105.616 325.086 105.256C325.086 104.896 325.362 104.621 325.722 104.621H354.499C354.859 104.621 355.134 104.896 355.134 105.256C355.134 105.616 354.859 105.891 354.499 105.891Z" fill="white"/>
<path d="M354.499 112.454H325.722C325.362 112.454 325.086 112.179 325.086 111.819C325.086 111.459 325.362 111.184 325.722 111.184H354.499C354.859 111.184 355.134 111.459 355.134 111.819C355.134 112.179 354.859 112.454 354.499 112.454Z" fill="white"/>
<path d="M354.499 119.016H325.722C325.362 119.016 325.086 118.741 325.086 118.381C325.086 118.021 325.362 117.746 325.722 117.746H354.499C354.859 117.746 355.134 118.021 355.134 118.381C355.134 118.741 354.859 119.016 354.499 119.016Z" fill="white"/>
<path d="M369.47 227.643H219.569L210.781 240.239C200.849 254.466 179.864 254.677 169.658 240.641L116.126 167.032C118.371 169.826 128.641 166.714 138.424 160.279C148.355 153.737 154.771 145.502 152.76 142.453L189.88 189.748L201.252 169.678C204.365 164.364 209.531 160.554 215.545 159.157L254.233 150.964H287.584L324.345 159.072C330.74 160.533 336.161 164.703 339.232 170.483L369.47 227.643Z" fill="white"/>
<path d="M190.071 251.671C181.707 251.671 174.083 247.797 169.149 241.001L115.618 167.392L116.634 166.63C118.434 168.853 127.984 166.397 138.085 159.749C142.786 156.658 146.873 153.081 149.583 149.651C152.04 146.56 153.035 143.998 152.23 142.792L153.268 142.051L189.796 188.605L200.701 169.361C203.899 163.899 209.256 159.961 215.397 158.543L254.169 150.328H287.648L287.711 150.35L324.472 158.458C331.037 159.961 336.627 164.237 339.782 170.186L370.508 228.278H219.886L211.289 240.599C206.44 247.543 198.795 251.586 190.304 251.671C190.24 251.671 190.156 251.671 190.071 251.671ZM118.074 168.62L170.187 240.26C174.93 246.781 182.257 250.486 190.325 250.401C198.393 250.316 205.656 246.484 210.272 239.879L219.251 227.008H368.433L338.681 170.779C335.695 165.148 330.422 161.104 324.218 159.686L287.521 151.599H254.296L215.672 159.77C209.87 161.125 204.809 164.851 201.802 169.996L189.965 190.891L153.67 144.655C153.374 146.243 152.336 148.233 150.557 150.455C147.762 153.97 143.569 157.653 138.763 160.808C132.05 165.211 123.982 168.683 119.175 168.683C118.794 168.683 118.413 168.662 118.074 168.62Z" fill="#3FB1B5"/>
<path d="M328.327 227.41C328.094 227.41 327.882 227.283 327.755 227.072L317.104 206.049C316.955 205.732 317.061 205.351 317.379 205.203C317.696 205.054 318.078 205.16 318.226 205.478L328.877 226.5C329.025 226.818 328.919 227.199 328.602 227.347C328.517 227.389 328.432 227.41 328.327 227.41Z" fill="#3FB1B5"/>
<path d="M218.722 229.379C218.616 229.379 218.531 229.358 218.425 229.315C218.108 229.167 217.981 228.765 218.15 228.469L228.695 207.658C228.844 207.341 229.246 207.214 229.542 207.383C229.86 207.531 229.987 207.933 229.818 208.23L219.272 229.04C219.166 229.252 218.955 229.379 218.722 229.379Z" fill="#3FB1B5"/>
<path d="M199.6 202.916C199.409 202.916 199.219 202.831 199.092 202.662L174.93 171.774C174.719 171.499 174.761 171.097 175.036 170.885C175.311 170.673 175.714 170.716 175.926 170.991L200.087 201.878C200.299 202.153 200.256 202.556 199.981 202.767C199.875 202.873 199.727 202.916 199.6 202.916Z" fill="#3FB1B5"/>
<path d="M283.879 172.854L274.583 161.528C274.35 161.253 274.392 160.851 274.668 160.639C274.943 160.406 275.345 160.449 275.557 160.724L284.048 171.034L303.466 154.563C303.742 154.33 304.144 154.373 304.356 154.627C304.589 154.902 304.546 155.304 304.292 155.516L283.879 172.854Z" fill="#3FB1B5"/>
<path d="M259.739 173.257L237.356 155.537C237.081 155.325 237.038 154.923 237.25 154.648C237.462 154.373 237.864 154.33 238.139 154.542L259.506 171.457L267.743 160.936C267.955 160.66 268.357 160.618 268.632 160.83C268.908 161.041 268.95 161.444 268.738 161.719L259.739 173.257Z" fill="#3FB1B5"/>
<path d="M126.311 178.464C124.3 178.464 123.241 177.85 122.712 177.172C122.5 176.897 122.542 176.495 122.817 176.283C123.093 176.071 123.495 176.114 123.707 176.389C124.596 177.511 127.497 177.447 131.457 176.262C135.671 174.992 140.753 172.493 145.369 169.424C150.092 166.291 154.2 162.67 156.931 159.198C159.409 156.065 160.404 153.482 159.599 152.255C159.409 151.958 159.494 151.577 159.79 151.365C160.086 151.175 160.468 151.26 160.679 151.556C161.823 153.313 160.849 156.298 157.948 159.982C155.131 163.538 150.917 167.264 146.089 170.461C141.304 173.637 136.243 176.135 131.838 177.469C129.445 178.188 127.645 178.464 126.311 178.464Z" fill="#3FB1B5"/>
<path d="M153.48 157.907C151.807 157.907 150.452 156.552 150.452 154.88C150.452 153.207 151.807 151.853 153.48 151.853C155.153 151.853 156.508 153.207 156.508 154.88C156.508 156.552 155.153 157.907 153.48 157.907ZM153.48 153.123C152.506 153.123 151.722 153.906 151.722 154.88C151.722 155.854 152.506 156.637 153.48 156.637C154.454 156.637 155.237 155.854 155.237 154.88C155.237 153.906 154.454 153.123 153.48 153.123Z" fill="#3FB1B5"/>
<path d="M271.639 172.939C269.966 172.939 268.611 171.584 268.611 169.911C268.611 168.239 269.966 166.884 271.639 166.884C273.312 166.884 274.667 168.239 274.667 169.911C274.667 171.584 273.312 172.939 271.639 172.939ZM271.639 168.154C270.665 168.154 269.881 168.937 269.881 169.911C269.881 170.885 270.665 171.668 271.639 171.668C272.613 171.668 273.396 170.885 273.396 169.911C273.396 168.937 272.613 168.154 271.639 168.154Z" fill="#3FB1B5"/>
<path d="M271.639 192.203C269.966 192.203 268.611 190.848 268.611 189.176C268.611 187.503 269.966 186.148 271.639 186.148C273.312 186.148 274.667 187.503 274.667 189.176C274.667 190.848 273.312 192.203 271.639 192.203ZM271.639 187.419C270.665 187.419 269.881 188.202 269.881 189.176C269.881 190.15 270.665 190.933 271.639 190.933C272.613 190.933 273.396 190.15 273.396 189.176C273.396 188.202 272.613 187.419 271.639 187.419Z" fill="#3FB1B5"/>
<path d="M210.019 241.255L219.569 227.643V241.255H210.019Z" fill="#3FB1B5"/>
<path d="M138.191 159.643C128.407 166.079 118.137 169.191 115.893 166.397C115.85 166.354 115.829 166.312 115.787 166.249C115.321 165.55 115.363 164.597 115.787 163.433C117.248 159.601 123.283 153.673 130.949 148.635C137.047 144.612 143.061 141.818 147.233 140.95C149.647 140.463 151.446 140.611 152.315 141.543L152.526 141.797C154.517 144.845 148.122 153.102 138.191 159.643Z" fill="#FE5244"/>
<path d="M138.191 159.643C132.622 163.305 126.883 165.909 122.563 166.925L103.23 139.658C100.541 135.847 101.43 130.576 105.263 127.887L122.669 115.651L112.801 98.8626C111.361 96.428 112.187 93.2736 114.644 91.8552C115.448 91.3894 116.316 91.1777 117.185 91.1777C118.857 91.1777 120.509 92.0034 121.483 93.5277L152.336 141.5L152.548 141.839C154.517 144.845 148.122 153.101 138.191 159.643Z" fill="#E57281"/>
<path d="M128.132 139.975C127.857 139.975 127.582 139.954 127.306 139.89C126.248 139.679 125.337 139.043 124.765 138.154L114.58 122.912C114.389 122.615 114.474 122.234 114.749 122.022C115.046 121.832 115.427 121.917 115.639 122.192L125.824 137.434C126.226 138.048 126.84 138.472 127.56 138.62C128.28 138.768 129.022 138.62 129.636 138.218L132.028 136.651C133.299 135.826 133.659 134.132 132.854 132.862L122.076 116.158C121.885 115.862 121.97 115.481 122.267 115.29C122.563 115.1 122.944 115.184 123.135 115.481L133.913 132.184C135.099 134.047 134.548 136.524 132.706 137.71L130.313 139.276C129.678 139.742 128.916 139.975 128.132 139.975Z" fill="#9A3B82"/>
<path d="M120.234 145.035C118.921 145.035 117.629 144.4 116.846 143.235C116.655 142.939 116.74 142.558 117.036 142.346C117.333 142.156 117.714 142.24 117.926 142.537C118.752 143.786 120.446 144.146 121.716 143.341L123.897 141.965C124.511 141.563 124.956 140.949 125.104 140.208C125.253 139.467 125.126 138.726 124.723 138.112C124.533 137.816 124.617 137.435 124.914 137.223C125.21 137.032 125.591 137.117 125.803 137.413C126.396 138.324 126.608 139.403 126.375 140.483C126.142 141.542 125.507 142.452 124.596 143.045L122.415 144.421C121.737 144.823 120.975 145.035 120.234 145.035Z" fill="#9A3B82"/>
<path d="M112.484 149.778C111.213 149.778 109.964 149.185 109.18 148.063L103.4 139.912C103.188 139.616 103.273 139.235 103.548 139.023C103.823 138.811 104.225 138.896 104.437 139.171L110.218 147.322C111.086 148.529 112.717 148.846 113.945 148.063L113.987 148.042L115.999 146.92C116.634 146.518 117.058 145.904 117.227 145.184C117.397 144.443 117.248 143.702 116.846 143.067L106.872 128.247C106.682 127.951 106.745 127.57 107.042 127.358C107.338 127.168 107.719 127.231 107.931 127.528L117.905 142.347C118.519 143.278 118.709 144.379 118.477 145.438C118.244 146.496 117.608 147.407 116.677 147.978L116.655 147.999L114.644 149.121C113.945 149.587 113.204 149.778 112.484 149.778Z" fill="#9A3B82"/>
<path d="M145.136 130.322L140.075 122.468C138.402 119.864 134.908 119.144 132.346 120.88L119.789 129.39C119.789 129.39 123.431 135.932 132.283 130.745L135.247 135.466C129.191 139.298 127.455 147.364 131.393 153.355L145.136 130.322Z" fill="#E57281"/>
<path d="M131.393 153.99C131.181 153.99 130.991 153.884 130.864 153.693C128.873 150.645 128.174 147.004 128.958 143.447C129.678 140.102 131.605 137.223 134.379 135.275L132.071 131.592C129.021 133.264 126.247 133.751 123.791 133.095C120.678 132.248 119.281 129.792 119.217 129.707L118.942 129.199L131.308 120.562C132.706 119.63 134.358 119.292 135.988 119.63C137.619 119.969 139.016 120.922 139.927 122.34L144.988 130.194C145.178 130.491 145.094 130.872 144.797 131.062C144.501 131.253 144.12 131.168 143.929 130.872L138.868 123.018C138.148 121.896 137.047 121.133 135.734 120.879C134.442 120.604 133.108 120.879 132.028 121.62L120.657 129.559C121.165 130.216 122.309 131.401 124.13 131.888C126.375 132.502 129 131.93 131.944 130.216L132.473 129.898L136.094 135.677L135.565 136.016C132.791 137.773 130.864 140.526 130.165 143.743C129.466 146.961 130.08 150.264 131.901 153.016C132.092 153.312 132.007 153.693 131.711 153.905C131.626 153.948 131.52 153.99 131.393 153.99Z" fill="#9A3B82"/>
<path d="M138.191 159.644C132.622 163.306 126.883 165.91 122.563 166.926L117.756 160.152C120.446 156.637 125.252 152.403 130.949 148.656C137.047 144.634 143.061 141.839 147.233 140.971C149.647 140.484 151.447 140.633 152.315 141.564L152.527 141.818C152.548 141.861 152.569 141.882 152.59 141.924C152.611 141.945 152.611 141.966 152.632 142.009C152.654 142.051 152.675 142.072 152.696 142.115C154.136 145.354 147.804 153.293 138.191 159.644Z" fill="#9A3B82"/>
<path d="M287.563 132.334V150.943C287.563 156.341 280.067 160.702 270.856 160.702C261.623 160.702 254.148 156.341 254.148 150.943V132.334H287.563Z" fill="#E57281"/>
<path d="M259.039 157.844C256.011 156.087 254.126 153.631 254.126 150.943V132.334H287.563V137.5C287.563 142.856 284.302 147.661 279.347 149.673L259.039 157.844Z" fill="#9A3B82"/>
<path d="M296.88 131.233V131.55C296.88 134.768 294.275 137.372 291.057 137.372H287.224C285.932 142.58 281.231 146.454 275.598 146.454H266.112C260.5 146.454 255.778 142.601 254.508 137.372H250.675C247.456 137.372 244.852 134.768 244.852 131.55V131.233C244.852 128.015 247.456 125.411 250.675 125.411H254.148V120.817C254.148 115.905 257.769 111.841 262.491 111.163C263.528 112.899 266.662 117.048 273.057 116.816C276.064 116.71 278.86 116.138 281.168 115.461C283.942 114.656 286.716 116.35 287.414 118.996C287.52 119.589 287.584 120.182 287.584 120.796V125.39H291.057C294.254 125.39 296.88 128.015 296.88 131.233Z" fill="#E57281"/>
<path d="M290.231 125.39H287.562V120.288C287.562 119.843 287.499 119.398 287.393 118.996C286.694 116.35 283.92 114.656 281.146 115.461C278.838 116.138 276.064 116.71 273.036 116.816C266.641 117.049 263.507 112.899 262.469 111.163C257.747 111.841 254.126 115.905 254.126 120.817V125.411H250.802C250.802 125.411 246.99 111.629 249.849 107.734C252.665 103.902 256.053 105.574 256.053 105.574C256.053 105.574 254.02 94.0998 265.37 94.3115C276.699 94.5232 291.438 107.67 292.518 110.083C294.212 113.788 290.231 125.39 290.231 125.39Z" fill="#9A3B82"/>
<path d="M288.855 132.842C288.558 132.842 288.325 132.609 288.325 132.312C288.325 129.772 290.4 127.697 292.941 127.697C293.238 127.697 293.471 127.93 293.471 128.227C293.471 128.523 293.238 128.756 292.941 128.756C290.972 128.756 289.384 130.344 289.384 132.312C289.384 132.609 289.151 132.842 288.855 132.842Z" fill="#9A3B82"/>
<path d="M252.898 132.842C252.602 132.842 252.369 132.609 252.369 132.312C252.369 130.344 250.78 128.756 248.811 128.756C248.515 128.756 248.282 128.523 248.282 128.227C248.282 127.93 248.515 127.697 248.811 127.697C251.352 127.697 253.427 129.772 253.427 132.312C253.427 132.609 253.194 132.842 252.898 132.842Z" fill="#9A3B82"/>
<path d="M282.226 121.346C282.121 121.346 282.015 121.303 281.909 121.24C281.803 121.155 279.071 119.229 275.577 120.689C275.302 120.795 275.006 120.668 274.878 120.393C274.773 120.118 274.9 119.822 275.175 119.694C279.241 118.022 282.396 120.266 282.523 120.372C282.756 120.541 282.819 120.88 282.629 121.113C282.544 121.261 282.396 121.346 282.226 121.346Z" fill="#9A3B82"/>
<path d="M259.272 121.346C259.103 121.346 258.955 121.261 258.849 121.134C258.679 120.902 258.722 120.563 258.955 120.393C259.082 120.288 262.258 118.043 266.303 119.716C266.578 119.822 266.705 120.139 266.599 120.415C266.493 120.69 266.175 120.817 265.9 120.711C262.385 119.25 259.611 121.24 259.569 121.261C259.484 121.304 259.378 121.346 259.272 121.346Z" fill="#9A3B82"/>
<path d="M272.189 139.171C271.363 139.171 270.41 139.002 269.33 138.599C269.055 138.494 268.907 138.197 269.013 137.922C269.119 137.647 269.415 137.499 269.69 137.604C274.137 139.256 275.598 136.334 275.662 136.207C275.789 135.953 276.107 135.826 276.361 135.953C276.615 136.08 276.742 136.398 276.615 136.652C276.594 136.694 275.387 139.171 272.189 139.171Z" fill="#9A3B82"/>
<path d="M270.686 135.191C270.199 135.191 269.67 135.191 269.225 135.149C268.928 135.128 268.717 134.874 268.738 134.577C268.759 134.281 269.013 134.069 269.31 134.09C270.559 134.175 272.486 134.09 272.507 134.09C272.804 134.069 273.036 134.302 273.058 134.598C273.079 134.895 272.846 135.128 272.549 135.149C272.507 135.149 271.639 135.191 270.686 135.191Z" fill="#9A3B82"/>
<path d="M278.817 129.645C279.402 129.645 279.876 128.848 279.876 127.866C279.876 126.884 279.402 126.088 278.817 126.088C278.232 126.088 277.758 126.884 277.758 127.866C277.758 128.848 278.232 129.645 278.817 129.645Z" fill="#9A3B82"/>
<path d="M263.634 129.645C264.219 129.645 264.693 128.848 264.693 127.866C264.693 126.884 264.219 126.088 263.634 126.088C263.049 126.088 262.575 126.884 262.575 127.866C262.575 128.848 263.049 129.645 263.634 129.645Z" fill="#9A3B82"/>
<path d="M266.154 134.387H259.484C257.917 134.387 256.625 133.095 256.625 131.529V124.86C256.625 123.293 257.917 122.002 259.484 122.002H266.154C267.721 122.002 269.013 123.293 269.013 124.86V131.529C269.034 132.27 268.737 132.989 268.208 133.519C267.657 134.09 266.937 134.387 266.154 134.387ZM259.484 123.06C258.488 123.06 257.684 123.865 257.684 124.86V131.529C257.684 132.524 258.488 133.328 259.484 133.328H266.154C266.641 133.328 267.107 133.138 267.446 132.778C267.785 132.439 267.954 131.994 267.954 131.529V124.86C267.954 123.865 267.149 123.06 266.154 123.06H259.484Z" fill="white"/>
<path d="M282.48 134.387H275.81C274.243 134.387 272.951 133.095 272.951 131.529V124.86C272.951 123.293 274.243 122.002 275.81 122.002H282.48C284.047 122.002 285.339 123.293 285.339 124.86V131.529C285.339 133.095 284.047 134.387 282.48 134.387ZM275.81 123.06C274.815 123.06 274.01 123.865 274.01 124.86V131.529C274.01 132.524 274.815 133.328 275.81 133.328H282.48C283.475 133.328 284.28 132.524 284.28 131.529V124.86C284.28 123.865 283.475 123.06 282.48 123.06H275.81Z" fill="white"/>
<path d="M273.481 126.405H268.504V127.464H273.481V126.405Z" fill="white"/>
<path d="M284.239 220.063H261.094C258.637 220.063 256.647 218.073 256.647 215.617V203.317C256.647 200.861 258.637 198.871 261.094 198.871H284.239C286.695 198.871 288.686 200.861 288.686 203.317V215.617C288.686 218.073 286.695 220.063 284.239 220.063ZM261.094 200.141C259.336 200.141 257.918 201.56 257.918 203.317V215.617C257.918 217.374 259.336 218.792 261.094 218.792H284.239C285.996 218.792 287.415 217.374 287.415 215.617V203.317C287.415 201.56 285.996 200.141 284.239 200.141H261.094Z" fill="#66B0F0"/>
<path d="M273.248 214.474H265.413C264.164 214.474 263.147 213.457 263.147 212.208V206.725C263.147 205.476 264.164 204.46 265.413 204.46H273.248C274.498 204.46 275.514 205.476 275.514 206.725V212.208C275.514 213.457 274.498 214.474 273.248 214.474Z" fill="#66B0F0"/>
<path d="M280.872 214.325L278.458 212.716C277.801 212.272 277.399 211.51 277.399 210.684V208.271C277.399 207.445 277.801 206.683 278.458 206.238L280.872 204.629C281.443 204.248 282.185 204.672 282.185 205.391V213.584C282.206 214.283 281.443 214.706 280.872 214.325Z" fill="#66B0F0"/>
<path d="M593.783 289.354H31.6353C31.2753 289.354 31 289.079 31 288.719C31 288.359 31.2753 288.084 31.6353 288.084H593.783C594.143 288.084 594.418 288.359 594.418 288.719C594.418 289.079 594.143 289.354 593.783 289.354Z" fill="#3FB1B5"/>
<path d="M212.623 292.424V553.794H197.864V504.043C197.864 499.407 194.094 495.639 189.457 495.639H83.8121C79.1746 495.639 75.4054 499.407 75.4054 504.043V553.794H60.646V292.424H212.623Z" fill="white"/>
<path d="M213.258 554.429H197.228V504.044C197.228 499.767 193.734 496.274 189.457 496.274H83.8121C79.5346 496.274 76.0407 499.767 76.0407 504.044V554.429H60.0107V291.789H213.258V554.429V554.429ZM198.499 553.159H211.988V293.059H61.2813V553.159H74.7701V504.044C74.7701 499.069 78.8358 495.004 83.8121 495.004H189.457C194.433 495.004 198.499 499.069 198.499 504.044V553.159Z" fill="#3FB1B5"/>
<path d="M213.068 292.424V361.778L60.646 487.255L60.6672 292.424H213.068Z" fill="#D0F0E4"/>
<path d="M189.901 368.32H83.3883C78.645 368.32 74.791 364.467 74.791 359.725V312.325C74.791 307.583 78.645 303.729 83.3883 303.729H189.901C194.645 303.729 198.499 307.583 198.499 312.325V359.725C198.499 364.467 194.645 368.32 189.901 368.32ZM83.3883 305C79.3438 305 76.0615 308.281 76.0615 312.325V359.725C76.0615 363.769 79.3438 367.05 83.3883 367.05H189.901C193.946 367.05 197.228 363.769 197.228 359.725V312.325C197.228 308.281 193.946 305 189.901 305H83.3883Z" fill="#3FB1B5"/>
<path d="M163.728 403.59H111.298L109.117 388.58H161.569L163.728 403.59Z" fill="#FFCF2D"/>
<path d="M191.702 379.922C185.158 379.922 179.864 385.214 179.864 391.756V403.59H135.248V391.756C135.248 385.214 140.541 379.922 147.085 379.922H191.702Z" fill="white"/>
<path d="M180.5 404.226H134.612V391.756C134.612 384.876 140.203 379.287 147.085 379.287H191.702V380.557C185.518 380.557 180.5 385.575 180.5 391.756V404.226ZM135.883 402.956H179.229V391.756C179.229 386.845 182.088 382.59 186.217 380.557H147.085C140.901 380.557 135.883 385.575 135.883 391.756V402.956Z" fill="#3FB1B5"/>
<path d="M202.819 388.581H158.202C156.826 383.584 152.231 379.922 146.789 379.922H191.405C196.848 379.922 201.422 383.584 202.819 388.581Z" fill="white"/>
<path d="M203.666 389.216H157.737L157.61 388.75C156.276 383.923 151.829 380.557 146.81 380.557V379.287H191.427C196.996 379.287 201.951 383.034 203.455 388.412L203.666 389.216ZM158.668 387.946H201.951C200.363 383.564 196.128 380.557 191.406 380.557H152.273C155.259 382.018 157.631 384.664 158.668 387.946Z" fill="#3FB1B5"/>
<path d="M189.901 467.546H83.3883C78.645 467.546 74.791 463.693 74.791 458.951V411.55C74.791 406.808 78.645 402.955 83.3883 402.955H189.901C194.645 402.955 198.499 406.808 198.499 411.55V458.951C198.499 463.693 194.645 467.546 189.901 467.546ZM83.3883 404.225C79.3438 404.225 76.0615 407.507 76.0615 411.55V458.951C76.0615 462.994 79.3438 466.276 83.3883 466.276H189.901C193.946 466.276 197.228 462.994 197.228 458.951V411.55C197.228 407.507 193.946 404.225 189.901 404.225H83.3883Z" fill="#3FB1B5"/>
<path d="M158.477 335.718C158.117 335.718 157.842 335.443 157.842 335.083C157.842 331.653 155.068 328.88 151.637 328.88H121.674C118.243 328.88 115.469 331.653 115.469 335.083C115.469 335.443 115.194 335.718 114.834 335.718C114.474 335.718 114.199 335.443 114.199 335.083C114.199 330.954 117.544 327.609 121.674 327.609H151.637C155.766 327.609 159.112 330.954 159.112 335.083C159.112 335.443 158.837 335.718 158.477 335.718Z" fill="#3FB1B5"/>
<path d="M158.477 434.943C158.117 434.943 157.842 434.668 157.842 434.308C157.842 430.878 155.068 428.105 151.637 428.105H121.674C118.243 428.105 115.469 430.878 115.469 434.308C115.469 434.668 115.194 434.943 114.834 434.943C114.474 434.943 114.199 434.668 114.199 434.308C114.199 430.18 117.544 426.835 121.674 426.835H151.637C155.766 426.835 159.112 430.18 159.112 434.308C159.112 434.668 158.837 434.943 158.477 434.943Z" fill="#3FB1B5"/>
<path d="M571.4 292.424H555.667V554.365H571.4V292.424Z" fill="white"/>
<path d="M572.035 555.001H555.031V291.789H572.035V555.001ZM556.302 553.731H570.765V293.059H556.302V553.731Z" fill="#3FB1B5"/>
<path d="M632.365 555.001H304.017C303.657 555.001 303.381 554.725 303.381 554.366C303.381 554.006 303.657 553.73 304.017 553.73H632.365C632.725 553.73 633 554.006 633 554.366C633 554.725 632.725 555.001 632.365 555.001Z" fill="#3FB1B5"/>
<path d="M105.327 252.792H95.8189C95.8189 252.792 82.2454 196.246 70.3235 194.404C58.4017 192.563 57.7876 214.326 57.7876 214.326C57.7876 214.326 57.9994 181.236 87.7934 185.767C117.609 190.297 105.327 252.792 105.327 252.792Z" fill="white"/>
<path d="M105.856 253.428H95.3322L95.2051 252.941C95.1628 252.792 91.7535 238.651 86.9467 224.488C78.9846 201.052 73.4578 195.526 70.2391 195.04C68.0369 194.701 66.0887 195.209 64.4794 196.564C58.8679 201.221 58.4444 214.22 58.4444 214.347L57.1738 214.326C57.1738 214.156 57.2162 210.282 58.4655 205.328C59.6302 200.734 62.0866 194.32 67.2322 189.916C72.4626 185.449 79.4082 183.84 87.9207 185.153C93.4264 185.979 97.8944 188.815 101.219 193.536C106.555 201.137 108.99 213.437 108.419 230.14C107.995 242.525 106.005 252.814 105.983 252.919L105.856 253.428ZM96.3274 252.157H104.819C105.221 249.934 106.788 240.789 107.148 230.077C107.529 218.793 106.619 203.444 100.181 194.277C97.0686 189.832 92.8758 187.185 87.7301 186.423C79.6199 185.195 72.9919 186.698 68.058 190.911C66.5758 192.182 65.3052 193.642 64.2464 195.188C66.0464 193.918 68.1216 193.473 70.4509 193.833C75.6389 194.637 81.6104 204.841 88.1748 224.149C92.4735 236.83 95.671 249.532 96.3274 252.157Z" fill="#3FB1B5"/>
<path d="M101.155 252.581C100.816 252.581 100.519 252.305 100.519 251.945C99.8205 209.795 90.8844 194.912 83.5153 189.874C77.925 186.042 73.0334 187.778 72.9911 187.799C72.6523 187.926 72.2923 187.757 72.1652 187.418C72.0382 187.079 72.2076 186.719 72.5464 186.592C72.7793 186.508 78.0944 184.624 84.2353 188.815C88.9786 192.076 92.8538 198.046 95.7336 206.598C99.4394 217.607 101.472 232.85 101.79 251.924C101.79 252.284 101.515 252.581 101.155 252.581Z" fill="#3FB1B5"/>
<path d="M131.224 251.945H86.5649V288.295H131.224V251.945Z" fill="#FE5244"/>
<path d="M140.626 270.131C137.788 271.358 134.4 271.21 131.245 269.834C128.916 268.818 126.714 267.146 124.935 264.859C122.478 261.684 120.827 257.344 120.827 251.945C120.827 238.862 110.408 230.648 106.131 247.965C105.834 249.172 105.559 250.484 105.326 251.945V251.903V251.818C105.326 251.776 105.326 251.712 105.347 251.649V251.564C105.432 250.484 105.75 247.288 106.724 243.435C107.444 240.577 108.524 237.401 110.133 234.458C110.938 232.998 111.869 231.6 112.971 230.351C115.808 227.091 119.704 224.805 125.019 224.805C134.803 224.805 141.96 236.321 144.692 247.796C147.084 257.767 146.11 267.738 140.626 270.131Z" fill="white"/>
<path d="M136.454 271.592C134.654 271.592 132.77 271.189 130.991 270.406C128.471 269.305 126.205 267.527 124.427 265.241C121.653 261.663 120.192 257.048 120.192 251.946C120.192 245.975 117.566 239.243 113.648 238.778C110.811 238.439 108.312 241.847 106.745 248.114C106.428 249.426 106.173 250.696 105.94 252.051L104.67 251.946V251.818C104.67 251.776 104.67 251.67 104.691 251.564V251.501C104.776 250.315 105.115 247.14 106.089 243.266C106.957 239.836 108.122 236.766 109.561 234.141C110.472 232.511 111.425 231.114 112.484 229.928C115.808 226.096 120.022 224.17 125.02 224.17C135.184 224.17 142.532 235.962 145.306 247.648C146.534 252.792 146.873 257.852 146.238 261.896C145.539 266.447 143.675 269.475 140.88 270.703C139.525 271.295 138.021 271.592 136.454 271.592ZM113.267 237.486C113.458 237.486 113.627 237.507 113.797 237.528C118.032 238.037 121.462 244.515 121.462 251.967C121.462 256.794 122.839 261.133 125.443 264.5C127.095 266.617 129.191 268.268 131.499 269.284C134.527 270.597 137.767 270.703 140.372 269.58C145.115 267.506 146.619 258.635 144.078 247.987C142.659 241.995 140.139 236.47 137.005 232.426C133.469 227.875 129.339 225.482 125.02 225.482C120.425 225.482 116.528 227.282 113.458 230.817C112.463 231.961 111.552 233.252 110.705 234.819C109.646 236.766 108.736 238.947 107.994 241.36C108.354 240.768 108.714 240.238 109.096 239.773C110.599 237.931 112.124 237.486 113.267 237.486Z" fill="#3FB1B5"/>
<path d="M138.36 271.168C138.043 271.168 137.767 270.935 137.725 270.597C134.633 241.572 127.582 232.596 122.224 230.182C117.439 228.023 113.394 230.839 113.352 230.86C113.077 231.072 112.674 230.987 112.463 230.712C112.251 230.436 112.335 230.034 112.611 229.823C112.801 229.696 117.291 226.562 122.733 229.018C126.333 230.648 129.467 234.332 132.029 240.005C135.247 247.098 137.577 257.344 138.974 270.449C139.017 270.787 138.763 271.105 138.403 271.147C138.403 271.168 138.381 271.168 138.36 271.168Z" fill="#3FB1B5"/>
<path d="M57.1518 214.325C57.1518 217.819 56.7495 231.177 69.4972 231.791C82.2449 232.405 83.5154 213.161 83.5154 213.161C83.5154 213.161 77.2474 196.14 70.323 194.404C58.6129 191.461 57.1518 214.325 57.1518 214.325Z" fill="#3FB1B5"/>
<path d="M120.827 251.945H105.326C108.905 229.526 120.827 237.952 120.827 251.945Z" fill="#3FB1B5"/>
<path opacity="0.4" d="M384.06 87.2818V227.028C384.06 234.543 377.962 240.619 370.466 240.619H210.484C200.447 254.443 179.758 254.507 169.637 240.619L169.615 240.598C165.592 240.323 162.035 238.269 159.748 235.242L163.432 232.066L257.452 150.941L346.982 73.6904H370.466C377.962 73.6904 384.06 79.7875 384.06 87.2818Z" fill="white"/>
<path opacity="0.4" d="M140.626 270.766C137.81 272.036 134.4 271.845 131.245 270.469V288.295H98.2749L124.956 265.283L131.266 259.842L136.073 255.692L145.369 247.796C148.08 259.355 146.576 268.035 140.626 270.766Z" fill="white"/>
<path d="M421.392 364.826V482.661H394.16L376.817 434.244L351.979 364.826H421.392Z" fill="#A0505A"/>
<path d="M351.979 364.826H421.392V402.658L360.237 387.881L351.979 364.826Z" fill="#73325A"/>
<path d="M422.027 483.296H393.716L375.653 432.868L377.135 433.673C377.177 433.694 380.693 435.578 387.85 436.509C394.457 437.377 405.637 437.568 421.244 433.609L422.027 433.419V483.296V483.296ZM394.605 482.026H420.757V435.049C405.299 438.881 394.203 438.648 387.575 437.78C382.768 437.145 379.591 436.107 377.919 435.43L394.605 482.026Z" fill="white"/>
<path d="M390.984 446.248C388.93 446.248 387.257 444.575 387.257 442.522C387.257 440.468 388.93 438.796 390.984 438.796C393.038 438.796 394.711 440.468 394.711 442.522C394.711 444.575 393.038 446.248 390.984 446.248ZM390.984 440.066C389.628 440.066 388.527 441.167 388.527 442.522C388.527 443.877 389.628 444.978 390.984 444.978C392.339 444.978 393.44 443.877 393.44 442.522C393.44 441.167 392.339 440.066 390.984 440.066Z" fill="white"/>
<path d="M405.723 456.22C403.669 456.22 401.996 454.547 401.996 452.494C401.996 450.44 403.669 448.768 405.723 448.768C407.777 448.768 409.449 450.44 409.449 452.494C409.449 454.547 407.777 456.22 405.723 456.22ZM405.723 450.038C404.367 450.038 403.266 451.139 403.266 452.494C403.266 453.849 404.367 454.949 405.723 454.949C407.078 454.949 408.179 453.849 408.179 452.494C408.179 451.139 407.078 450.038 405.723 450.038Z" fill="white"/>
<path d="M416.691 445.147C414.637 445.147 412.964 443.475 412.964 441.421C412.964 439.368 414.637 437.695 416.691 437.695C418.745 437.695 420.418 439.368 420.418 441.421C420.418 443.475 418.745 445.147 416.691 445.147ZM416.691 438.966C415.336 438.966 414.234 440.066 414.234 441.421C414.234 442.776 415.336 443.877 416.691 443.877C418.046 443.877 419.147 442.776 419.147 441.421C419.147 440.066 418.046 438.966 416.691 438.966Z" fill="white"/>
<path d="M412.35 467.82C410.296 467.82 408.623 466.148 408.623 464.094C408.623 462.041 410.296 460.368 412.35 460.368C414.404 460.368 416.077 462.041 416.077 464.094C416.077 466.148 414.404 467.82 412.35 467.82ZM412.35 461.638C410.995 461.638 409.894 462.739 409.894 464.094C409.894 465.449 410.995 466.55 412.35 466.55C413.705 466.55 414.806 465.449 414.806 464.094C414.806 462.739 413.705 461.638 412.35 461.638Z" fill="white"/>
<path d="M394.076 462.189C392.022 462.189 390.349 460.517 390.349 458.463C390.349 456.41 392.022 454.737 394.076 454.737C396.13 454.737 397.803 456.41 397.803 458.463C397.803 460.517 396.13 462.189 394.076 462.189ZM394.076 456.008C392.721 456.008 391.62 457.108 391.62 458.463C391.62 459.818 392.721 460.919 394.076 460.919C395.431 460.919 396.532 459.818 396.532 458.463C396.532 457.108 395.431 456.008 394.076 456.008Z" fill="white"/>
<path d="M399.116 479.126C397.062 479.126 395.389 477.453 395.389 475.4C395.389 473.346 397.062 471.674 399.116 471.674C401.17 471.674 402.842 473.346 402.842 475.4C402.842 477.453 401.17 479.126 399.116 479.126ZM399.116 472.944C397.76 472.944 396.659 474.045 396.659 475.4C396.659 476.755 397.76 477.856 399.116 477.856C400.471 477.856 401.572 476.755 401.572 475.4C401.572 474.045 400.471 472.944 399.116 472.944Z" fill="white"/>
<path d="M434.267 504.636L415.59 543.399C412.943 549.644 406.823 553.709 400.026 553.709H376.203C370.105 553.709 366.399 547.527 368.728 541.896L392.678 484.143C394.012 480.629 396.363 477.707 399.306 475.653C402.271 473.6 405.828 472.436 409.576 472.436C414.785 472.436 419.952 475.971 423.383 479.888L431.683 488.843C435.516 493.204 436.511 499.322 434.267 504.636Z" fill="#66B0F0"/>
<path d="M434.267 504.635L415.59 543.398C412.943 549.644 406.823 553.708 400.026 553.708H374.7C372.35 553.708 371.015 552.248 370.232 550.236H375.865C382.662 550.236 388.782 546.172 391.429 539.926L412.964 495.024C414.976 490.832 419.232 488.144 423.891 488.144C429.968 488.144 434.584 492.589 435.431 498.221C435.516 500.38 435.135 502.561 434.267 504.635Z" fill="white"/>
<path d="M400.026 554.344H374.7C372.349 554.344 370.634 553.031 369.639 550.47C369.554 550.279 369.596 550.046 369.702 549.877C369.829 549.707 370.02 549.602 370.232 549.602H375.864C382.408 549.602 388.295 545.706 390.836 539.673C390.836 539.673 390.836 539.652 390.857 539.652L412.392 494.749C414.51 490.346 419.02 487.509 423.891 487.509C430.01 487.509 435.135 491.976 436.067 498.136C436.067 498.157 436.067 498.179 436.067 498.2C436.151 500.486 435.749 502.752 434.86 504.89C434.86 504.89 434.86 504.911 434.838 504.911L416.162 543.653C413.409 550.152 407.077 554.344 400.026 554.344ZM371.227 550.872C372.032 552.375 373.154 553.074 374.7 553.074H400.026C406.569 553.074 412.456 549.178 414.997 543.145C414.997 543.145 414.997 543.123 415.018 543.123L433.695 504.382C434.5 502.434 434.881 500.38 434.796 498.285C433.949 492.78 429.375 488.779 423.891 488.779C419.507 488.779 415.442 491.341 413.536 495.3L392 540.181C389.247 546.68 382.916 550.872 375.864 550.872H371.227Z" fill="#66B0F0"/>
<path d="M429.968 486.98C427.723 485.752 425.013 484.863 422.641 484.863C418.089 484.863 413.875 487.509 411.905 491.616L389.607 538.107C386.77 544.818 380.206 549.158 372.9 549.158H368.792C368.58 548.755 368.432 548.332 368.284 547.887H372.9C379.697 547.887 385.796 543.844 388.443 537.599L388.464 537.577L410.783 491.066C412.964 486.514 417.623 483.593 422.663 483.593C424.272 483.593 426.199 484.122 427.851 484.694L429.968 486.98Z" fill="white"/>
<path d="M351.979 364.826L346.664 434.244L344.292 465.343C344.292 465.343 328.813 482.576 311.194 471.948L303.042 434.265L284.386 348.038C279.346 324.729 295.27 302.056 318.924 298.901L351.979 364.826Z" fill="#A0505A"/>
<path d="M323.116 476.881C319.326 476.881 315.154 475.928 310.877 473.345L310.644 473.197L302.216 433.354L303.232 433.672C323.285 439.684 346.282 433.714 346.515 433.651L347.383 433.418L344.927 466.465L344.779 466.634C344.609 466.804 340.755 471.059 334.636 474.065C331.565 475.547 327.584 476.881 323.116 476.881ZM311.766 472.393C318.796 476.542 326.292 476.711 334.043 472.922C339.294 470.339 342.936 466.698 343.677 465.915L345.964 435.069C344.037 435.514 339.04 436.594 332.581 437.186C325.149 437.885 314.244 438.054 303.868 435.175L311.766 472.393Z" fill="white"/>
<path d="M322.332 454.08C320.278 454.08 318.605 452.407 318.605 450.354C318.605 448.3 320.278 446.628 322.332 446.628C324.386 446.628 326.059 448.3 326.059 450.354C326.059 452.407 324.386 454.08 322.332 454.08ZM322.332 447.898C320.977 447.898 319.876 448.999 319.876 450.354C319.876 451.709 320.977 452.81 322.332 452.81C323.688 452.81 324.789 451.709 324.789 450.354C324.789 448.999 323.688 447.898 322.332 447.898Z" fill="white"/>
<path d="M341.983 449.339C339.929 449.339 338.256 447.666 338.256 445.613C338.256 443.559 339.929 441.887 341.983 441.887C344.037 441.887 345.71 443.559 345.71 445.613C345.71 447.666 344.037 449.339 341.983 449.339ZM341.983 443.157C340.628 443.157 339.527 444.258 339.527 445.613C339.527 446.968 340.628 448.068 341.983 448.068C343.339 448.068 344.44 446.968 344.44 445.613C344.44 444.258 343.339 443.157 341.983 443.157Z" fill="white"/>
<path d="M310.474 445.146C308.42 445.146 306.747 443.474 306.747 441.42C306.747 439.367 308.42 437.694 310.474 437.694C312.528 437.694 314.201 439.367 314.201 441.42C314.201 443.474 312.528 445.146 310.474 445.146ZM310.474 438.965C309.119 438.965 308.018 440.065 308.018 441.42C308.018 442.775 309.119 443.876 310.474 443.876C311.829 443.876 312.93 442.775 312.93 441.42C312.93 440.065 311.829 438.965 310.474 438.965Z" fill="white"/>
<path d="M319.241 470.911C317.187 470.911 315.514 469.238 315.514 467.185C315.514 465.131 317.187 463.459 319.241 463.459C321.295 463.459 322.968 465.131 322.968 467.185C322.968 469.238 321.295 470.911 319.241 470.911ZM319.241 464.729C317.886 464.729 316.785 465.83 316.785 467.185C316.785 468.54 317.886 469.641 319.241 469.641C320.596 469.641 321.697 468.54 321.697 467.185C321.697 465.83 320.596 464.729 319.241 464.729Z" fill="white"/>
<path d="M333.661 464.729C331.607 464.729 329.935 463.057 329.935 461.003C329.935 458.95 331.607 457.277 333.661 457.277C335.715 457.277 337.388 458.95 337.388 461.003C337.388 463.057 335.715 464.729 333.661 464.729ZM333.661 458.548C332.306 458.548 331.205 459.648 331.205 461.003C331.205 462.358 332.306 463.459 333.661 463.459C335.017 463.459 336.118 462.358 336.118 461.003C336.118 459.648 335.017 458.548 333.661 458.548Z" fill="white"/>
<path d="M364.705 472.753L344.292 554.365H337.855C337.558 554.365 337.283 554.344 336.986 554.323C332.116 553.878 328.008 549.771 326.97 544.923L311.173 471.906C328.791 482.555 344.292 465.322 344.292 465.322L364.705 472.753Z" fill="#66B0F0"/>
<path d="M365.743 514.629C370.041 491.934 371.227 474.595 363.816 473.198C356.404 471.801 343.212 486.853 338.913 509.548C334.615 532.242 336.859 552.312 344.271 553.709C351.682 555.128 361.444 537.345 365.743 514.629Z" fill="white"/>
<path d="M345.118 554.429C344.8 554.429 344.461 554.408 344.143 554.344C340.29 553.625 337.6 548.417 336.563 539.694C335.567 531.29 336.181 520.535 338.278 509.442C340.268 498.963 344.313 489.203 349.67 481.963C354.583 475.336 359.919 471.822 363.921 472.584C367.775 473.304 369.681 477.665 369.787 485.922C369.872 492.654 368.749 502.075 366.357 514.756C364.663 523.69 362.1 532.094 358.945 539.059C355.832 545.94 352.423 550.767 349.098 553.032C347.743 553.942 346.409 554.429 345.118 554.429ZM362.82 473.749C359.432 473.749 354.879 477.093 350.708 482.725C345.456 489.817 341.496 499.386 339.527 509.675C337.452 520.662 336.838 531.269 337.812 539.546C338.765 547.549 341.158 552.481 344.376 553.095C345.605 553.328 346.96 552.947 348.4 551.973C354.901 547.549 361.783 532.158 365.107 514.523C367.5 501.948 368.601 492.59 368.516 485.943C368.432 478.491 366.801 474.426 363.688 473.833C363.413 473.77 363.117 473.749 362.82 473.749Z" fill="#66B0F0"/>
<path d="M335.948 509.188C333.725 520.958 333.069 532.327 334.127 541.218C334.89 547.612 336.499 552.164 338.701 554.365H337.854C337.558 554.365 337.282 554.344 336.986 554.323C334.996 551.698 333.577 547.294 332.857 541.367C331.777 532.369 332.433 520.852 334.699 508.955C336.838 497.692 341.158 487.128 346.896 479.189C350.327 474.447 353.926 471.123 357.209 469.62L359.114 470.255C351.555 472.499 340.078 487.403 335.948 509.188Z" fill="white"/>
<path d="M318.924 298.881L415.527 288.931L512.088 316.008L511.262 328.837C509.949 349.076 492.5 364.827 472.214 364.827H352.001L318.924 298.881Z" fill="#FE5244"/>
<path d="M467.957 356.572H347.744C347.384 356.572 347.108 356.296 347.108 355.936C347.108 355.577 347.384 355.301 347.744 355.301H467.957C477.147 355.301 486.782 350.453 494.406 341.964C501.626 333.919 505.946 323.863 505.946 315.077C505.946 314.718 506.222 314.442 506.582 314.442C506.942 314.442 507.217 314.718 507.217 315.077C507.217 324.181 502.77 334.554 495.358 342.832C487.481 351.554 477.507 356.572 467.957 356.572Z" fill="white"/>
<path d="M458.492 345.986H342.874C342.514 345.986 342.238 345.711 342.238 345.351C342.238 344.991 342.514 344.716 342.874 344.716H458.492C466.518 344.716 474.818 340.947 481.828 334.088C488.413 327.652 493.029 319.353 494.491 311.309C494.554 310.97 494.893 310.737 495.232 310.8C495.571 310.864 495.803 311.203 495.74 311.541C492.754 327.822 476.724 345.986 458.492 345.986Z" fill="white"/>
<path d="M448.306 335.188H336.732C336.372 335.188 336.097 334.913 336.097 334.553C336.097 334.193 336.372 333.918 336.732 333.918H448.306C463.553 333.918 476.788 320.2 481.51 307.307C481.637 306.968 481.997 306.799 482.314 306.926C482.653 307.053 482.823 307.413 482.696 307.73C480.07 314.907 475.326 321.661 469.313 326.741C462.769 332.267 455.506 335.188 448.306 335.188Z" fill="white"/>
<path d="M442.801 323.545H331.227C330.867 323.545 330.592 323.27 330.592 322.91C330.592 322.55 330.867 322.275 331.227 322.275H442.801C453.304 322.275 464.315 315.437 471.557 304.45C471.748 304.153 472.15 304.068 472.447 304.259C472.743 304.449 472.828 304.852 472.637 305.148C465.141 316.495 453.728 323.545 442.801 323.545Z" fill="white"/>
<path d="M437.507 312.96H325.933C325.573 312.96 325.298 312.684 325.298 312.324C325.298 311.965 325.573 311.689 325.933 311.689H437.507C445.596 311.689 453.749 307.963 460.462 301.21C460.716 300.956 461.118 300.956 461.351 301.21C461.605 301.464 461.605 301.866 461.351 302.099C454.405 309.107 445.935 312.96 437.507 312.96Z" fill="white"/>
<path d="M431.79 302.163H320.216C319.856 302.163 319.581 301.888 319.581 301.528C319.581 301.168 319.856 300.893 320.216 300.893H431.79C436.554 300.893 441.34 299.538 446.041 296.891C446.337 296.722 446.74 296.828 446.909 297.124C447.079 297.421 446.973 297.823 446.676 297.992C441.785 300.766 436.766 302.163 431.79 302.163Z" fill="white"/>
<path d="M351.768 365.463C351.535 365.463 351.302 365.336 351.196 365.103L318.141 299.157C317.992 298.839 318.12 298.458 318.416 298.31C318.734 298.162 319.115 298.289 319.263 298.585L352.318 364.531C352.466 364.849 352.339 365.23 352.043 365.378C351.958 365.442 351.873 365.463 351.768 365.463Z" fill="white"/>
<path d="M517.381 227.643C508.276 230.225 499.318 229.463 498.365 226.69C497.476 224.044 501.499 219.513 509.652 216.507C510.054 216.359 510.478 216.211 510.901 216.062C513.358 215.237 515.814 214.707 518.122 214.432C524.962 213.564 530.531 214.792 531.23 216.867C532.183 219.64 527.016 224.912 517.381 227.643Z" fill="white"/>
<path d="M506.539 229.865C501.923 229.865 498.429 228.827 497.751 226.901C496.608 223.514 501.626 218.793 509.419 215.913C509.821 215.765 510.245 215.617 510.668 215.469H510.69C513.082 214.664 515.56 214.114 518.037 213.818C525.047 212.928 530.976 214.156 531.823 216.676C532.119 217.501 531.971 218.517 531.42 219.576C529.642 222.963 524.2 226.393 517.55 228.277C513.718 229.335 509.843 229.865 506.539 229.865ZM522.463 214.791C521.171 214.791 519.753 214.876 518.207 215.067C515.814 215.363 513.421 215.892 511.113 216.676C510.69 216.824 510.266 216.972 509.885 217.12C506.2 218.475 503.066 220.275 501.076 222.201C499.403 223.81 498.62 225.419 498.98 226.499C499.678 228.552 507.831 229.695 517.212 227.049C522.4 225.588 528.456 222.519 530.298 218.983C530.679 218.242 530.806 217.586 530.637 217.078C530.256 215.956 527.249 214.791 522.463 214.791Z" fill="#3FB1B5"/>
<path d="M511.621 289.374H508.127L498.958 227.493V227.451L498.725 225.906C499.17 223.09 503.574 219.11 511.346 216.527C515.221 215.236 519.075 214.664 522.357 214.601L525.703 223.767L526.02 224.635L536.608 253.66C542.961 270.999 530.107 289.374 511.621 289.374Z" fill="#A0505A"/>
<path d="M525.914 224.424C523.691 225.821 520.811 227.112 517.381 228.086C509.503 230.309 501.52 229.399 498.958 227.493V227.451L498.725 225.906C499.17 223.09 503.574 219.11 511.346 216.527C515.221 215.236 519.075 214.664 522.357 214.601L525.914 224.424Z" fill="#73325A"/>
<path d="M398.205 238.46L387.088 266.109C381.603 279.764 368.347 288.719 353.609 288.719H204.173V275.043C204.173 271.74 206.206 268.776 209.298 267.612L224.65 261.79C226.048 261.261 227.509 260.985 228.991 260.985H246.419L345.054 251.035L362.079 212.061L398.205 238.46Z" fill="#A0505A"/>
<path d="M204.809 280.822C204.449 280.822 204.173 280.547 204.173 280.187C204.173 277.414 205.846 274.979 208.451 273.984L220.034 269.602C220.351 269.475 220.733 269.644 220.86 269.962C220.987 270.279 220.817 270.661 220.5 270.788L208.917 275.17C206.82 275.974 205.444 277.943 205.444 280.187C205.444 280.547 205.169 280.822 204.809 280.822Z" fill="#73325A"/>
<path d="M204.809 287.808C204.449 287.808 204.173 287.532 204.173 287.173C204.173 284.399 205.846 281.965 208.451 280.97L220.034 276.587C220.351 276.46 220.733 276.63 220.86 276.947C220.987 277.265 220.817 277.646 220.5 277.773L208.917 282.155C206.82 282.96 205.444 284.928 205.444 287.173C205.444 287.532 205.169 287.808 204.809 287.808Z" fill="#73325A"/>
<path d="M208.683 288.719C208.429 288.719 208.175 288.55 208.091 288.296C207.963 287.957 208.133 287.597 208.472 287.491L220.055 283.32C220.394 283.193 220.754 283.363 220.859 283.702C220.986 284.04 220.817 284.4 220.478 284.506L208.895 288.677C208.832 288.698 208.747 288.719 208.683 288.719Z" fill="#73325A"/>
<path d="M219.06 264.139C219.06 264.139 229.901 236.47 233.374 236.936C236.847 237.401 223.761 262.361 223.761 262.361L219.06 264.139Z" fill="#FE5244"/>
<path d="M362.079 212.082L359.581 217.777L391.577 254.931L398.205 238.46L362.079 212.082Z" fill="#73325A"/>
<path d="M498.958 227.515L512.087 316.008L415.548 288.931L398.205 238.439L353.44 205.731L369.152 187.016C383.17 170.313 403.859 160.659 425.67 160.659H456.692C483.67 160.659 508.509 175.394 521.447 199.062L531.505 216.464C531.505 216.464 528.477 212.019 512.151 216.486C497.773 220.444 498.958 227.515 498.958 227.515Z" fill="#3FB1B5"/>
<path d="M398.205 238.672C398.163 238.672 398.099 238.672 398.057 238.65C397.718 238.566 397.506 238.227 397.591 237.888L402.61 216.125C402.694 215.786 403.033 215.575 403.372 215.659C403.711 215.744 403.922 216.083 403.838 216.421L398.819 238.185C398.756 238.481 398.502 238.672 398.205 238.672Z" fill="white"/>
<path d="M509.652 295.98C509.355 295.98 509.08 295.769 509.017 295.451L492.69 193.981C492.627 193.642 492.86 193.304 493.22 193.261C493.558 193.198 493.897 193.431 493.939 193.791L510.266 295.26C510.329 295.599 510.097 295.938 509.737 295.98C509.715 295.98 509.694 295.98 509.652 295.98Z" fill="white"/>
<path d="M511.876 316.643C511.812 316.643 511.77 316.643 511.706 316.622L415.357 289.142C415.019 289.037 414.828 288.698 414.913 288.359C415.018 288.02 415.357 287.83 415.696 287.915L512.045 315.394C512.384 315.5 512.574 315.838 512.49 316.177C512.405 316.452 512.151 316.643 511.876 316.643Z" fill="white"/>
<path d="M420.735 146.517V160.744L445.85 160.532V135.424L420.735 146.517Z" fill="#A0505A"/>
<path d="M447.883 131.041V131.422C447.883 135.233 445.003 138.324 441.191 138.324H439.709C438.756 142.092 430.286 146.496 424.272 146.496H417.263C409.597 146.496 403.732 139.615 404.981 132.036L405.32 129.983L403.245 128.818C402.059 128.141 401.72 126.596 402.546 125.495L407.035 119.567L408.009 113.724C408.793 108.918 411.948 105.002 416.14 103.075C417.792 121.684 434.224 123.886 438.565 124.14H440.979C444.791 124.14 447.883 127.231 447.883 131.041Z" fill="#A0505A"/>
<path d="M436.766 133.497C436.406 133.497 436.13 133.222 436.13 132.862C436.13 129.517 438.862 126.786 442.208 126.786C442.568 126.786 442.843 127.061 442.843 127.421C442.843 127.781 442.568 128.056 442.208 128.056C439.561 128.056 437.401 130.216 437.401 132.862C437.401 133.222 437.126 133.497 436.766 133.497Z" fill="#73325A"/>
<path d="M413.811 124.33C414.408 124.33 414.891 123.212 414.891 121.832C414.891 120.452 414.408 119.334 413.811 119.334C413.215 119.334 412.731 120.452 412.731 121.832C412.731 123.212 413.215 124.33 413.811 124.33Z" fill="#73325A"/>
<path d="M418.216 118.678C418.025 118.678 417.834 118.593 417.707 118.424C414.891 114.529 412.265 114.74 412.223 114.74C411.863 114.783 411.566 114.529 411.524 114.169C411.482 113.83 411.736 113.512 412.096 113.47C412.223 113.449 415.484 113.195 418.724 117.662C418.936 117.937 418.872 118.339 418.576 118.551C418.47 118.636 418.343 118.678 418.216 118.678Z" fill="#73325A"/>
<path d="M438.566 124.14H440.98C444.791 124.14 447.883 127.231 447.883 131.042V131.423C447.883 135.233 445.003 138.324 441.191 138.324L439.561 139.467C432.7 143.871 423.213 161.188 425.543 173.446C428.168 187.228 440.175 190.298 451.271 188.181C462.367 186.064 470.456 179.607 467.83 165.803C467.534 164.173 467.047 162.543 466.433 160.934C466.623 160.998 466.793 161.061 466.983 161.125C480.324 164.766 495.994 165.19 500.314 154.774C504.633 144.358 503.659 134.048 490.679 128.671C483.14 125.537 472.891 125.559 464.95 127.718C468.953 113.809 461.838 98.3334 448.772 96.7879C428.253 94.3533 416.479 102.821 416.162 103.054C416.141 105.51 417.813 122.933 438.566 124.14Z" fill="#73325A"/>
<path d="M466.983 161.781C466.687 161.781 466.411 161.57 466.369 161.273C464.124 149.524 454.511 143.045 454.405 142.982C454.235 142.876 454.129 142.664 454.129 142.453C454.129 142.241 454.235 142.05 454.405 141.923C460.969 137.287 463.807 130.597 464.908 127.041C465.014 126.702 465.374 126.511 465.691 126.617C466.03 126.723 466.221 127.083 466.115 127.4C465.014 130.999 462.219 137.605 455.845 142.431C458.238 144.231 465.628 150.54 467.618 161.019C467.682 161.358 467.449 161.697 467.11 161.76C467.068 161.781 467.025 161.781 466.983 161.781Z" fill="white"/>
<path d="M471.24 127.4H465.628C465.268 127.4 464.993 127.125 464.993 126.765V121.155C464.993 117.874 467.661 115.206 470.944 115.206H471.24C474.522 115.206 477.19 117.874 477.19 121.155V121.451C477.212 123.018 476.597 124.521 475.475 125.643C474.353 126.765 472.849 127.4 471.24 127.4ZM466.264 126.13H471.24C472.511 126.13 473.675 125.643 474.565 124.733C475.433 123.844 475.92 122.679 475.92 121.451V121.155C475.92 118.572 473.823 116.476 471.24 116.476H470.944C468.36 116.476 466.264 118.572 466.264 121.155V126.13Z" fill="#FE5244"/>
<path d="M474.374 135.995C472.108 135.995 469.927 134.894 468.635 132.862L465.035 127.146C464.845 126.85 464.929 126.447 465.226 126.278L470.943 122.679C472.468 121.726 474.289 121.409 476.047 121.811C477.804 122.213 479.308 123.272 480.282 124.796L480.621 125.325C481.595 126.85 481.891 128.67 481.489 130.427C481.087 132.185 480.028 133.688 478.503 134.662L477.974 135C476.873 135.657 475.623 135.995 474.374 135.995ZM466.454 126.998L469.715 132.185C471.325 134.725 474.734 135.487 477.317 133.878L477.847 133.54C479.096 132.756 479.943 131.55 480.261 130.11C480.578 128.67 480.324 127.21 479.541 125.961L479.202 125.431C478.418 124.182 477.211 123.335 475.771 123.018C474.331 122.7 472.87 122.954 471.621 123.738L466.454 126.998Z" fill="#FE5244"/>
<path d="M439.688 152.932C439.54 152.932 439.391 152.932 439.243 152.911C437.655 152.784 436.215 152.064 435.177 150.858L434.987 150.625C433.949 149.439 433.441 147.915 433.547 146.348C433.653 144.76 434.373 143.3 435.58 142.262L439.561 138.452C439.688 138.325 439.857 138.261 440.027 138.282C440.196 138.282 440.365 138.367 440.471 138.494L444.389 142.919C445.426 144.125 445.956 145.671 445.829 147.259C445.702 148.846 444.982 150.286 443.775 151.323L443.521 151.514C442.483 152.424 441.128 152.932 439.688 152.932ZM439.984 139.807L436.469 143.173L436.448 143.194C435.495 144.02 434.923 145.163 434.839 146.433C434.754 147.682 435.156 148.868 435.961 149.799C435.961 149.799 435.961 149.82 435.982 149.82L436.173 150.053C436.977 150.985 438.1 151.556 439.349 151.662C440.598 151.747 441.805 151.344 442.758 150.54L443.012 150.328C443.944 149.524 444.516 148.402 444.622 147.153C444.706 145.904 444.304 144.697 443.499 143.744L439.984 139.807Z" fill="#FE5244"/>
<path d="M447.798 150.604C444.834 150.604 442.102 148.635 441.255 145.65L439.455 139.151C439.37 138.812 439.561 138.473 439.9 138.367L446.401 136.568C448.137 136.081 449.958 136.314 451.525 137.182C453.092 138.071 454.236 139.51 454.723 141.246L454.892 141.86C455.379 143.596 455.146 145.417 454.278 146.984C453.389 148.55 451.949 149.693 450.212 150.18L449.598 150.35C448.984 150.54 448.391 150.604 447.798 150.604ZM442.483 145.311C443.309 148.212 446.337 149.948 449.238 149.143L449.852 148.974C451.271 148.571 452.436 147.661 453.156 146.391C453.876 145.121 454.045 143.639 453.664 142.22L453.494 141.606C453.092 140.188 452.182 139.024 450.911 138.304C449.641 137.584 448.158 137.415 446.739 137.796L440.853 139.426L442.483 145.311Z" fill="#FE5244"/>
<path d="M347.193 554.344C347.15 554.344 347.108 554.344 347.066 554.323C346.727 554.26 346.494 553.921 346.579 553.561L383.466 380.958C383.53 380.62 383.869 380.387 384.229 380.472C384.568 380.535 384.8 380.874 384.716 381.234L347.807 553.836C347.743 554.132 347.489 554.344 347.193 554.344Z" fill="#FFCF2D"/>
<path d="M515.369 554.345C515.073 554.345 514.818 554.133 514.755 553.837L477.867 381.234C477.804 380.896 478.015 380.557 478.354 380.472C478.693 380.409 479.032 380.62 479.117 380.959L516.004 553.561C516.068 553.9 515.856 554.239 515.517 554.324C515.454 554.345 515.411 554.345 515.369 554.345Z" fill="#FFCF2D"/>
<path d="M506.687 516.026H355.367C355.007 516.026 354.731 515.751 354.731 515.391C354.731 515.031 355.007 514.756 355.367 514.756H506.687C507.047 514.756 507.322 515.031 507.322 515.391C507.322 515.751 507.047 516.026 506.687 516.026Z" fill="#FFCF2D"/>
<path d="M507.512 381.106H355.027C353.1 381.106 351.533 379.54 351.533 377.613V368.319C351.533 366.393 353.1 364.826 355.027 364.826H507.512C509.439 364.826 511.006 366.393 511.006 368.319V377.613C511.006 379.54 509.439 381.106 507.512 381.106Z" fill="white"/>
<path d="M507.512 381.742H355.027C352.74 381.742 350.898 379.9 350.898 377.614V368.32C350.898 366.033 352.74 364.191 355.027 364.191H507.512C509.799 364.191 511.642 366.033 511.642 368.32V377.614C511.642 379.9 509.799 381.742 507.512 381.742ZM355.027 365.462C353.46 365.462 352.168 366.753 352.168 368.32V377.614C352.168 379.18 353.46 380.472 355.027 380.472H507.512C509.079 380.472 510.371 379.18 510.371 377.614V368.32C510.371 366.753 509.079 365.462 507.512 365.462H355.027Z" fill="#66B0F0"/>
</svg>
