<svg width="48" height="48" viewBox="0 0 48 48" fill="none" xmlns="http://www.w3.org/2000/svg">
<rect width="48" height="48" fill="#E5E5E5"/>
<g clip-path="url(#clip0_0_1)">
<rect width="1920" height="8765" transform="translate(-1527 -6490)" fill="white"/>
<g clip-path="url(#clip1_0_1)">
<rect width="1920" height="1449" transform="translate(-1527 -1193)" fill="#F4F5F7"/>
</g>
<ellipse cx="24.232" cy="24" rx="23.7681" ry="24" fill="#FF3F3A"/>
<path fill-rule="evenodd" clip-rule="evenodd" d="M21.47 29.2071C21.0832 29.5976 20.4562 29.5976 20.0694 29.2071L15.6129 24.7071C15.2262 24.3166 15.2262 23.6834 15.6129 23.2929L20.0694 18.7929C20.4562 18.4024 21.0832 18.4024 21.47 18.7929C21.8567 19.1834 21.8567 19.8166 21.47 20.2071L18.7041 23L32.1586 23C32.7055 23 33.1489 23.4477 33.1489 24C33.1489 24.5523 32.7055 25 32.1586 25L18.7041 25L21.47 27.7929C21.8567 28.1834 21.8567 28.8166 21.47 29.2071Z" fill="white"/>
</g>
<defs>
<clipPath id="clip0_0_1">
<rect width="1920" height="8765" fill="white" transform="translate(-1527 -6490)"/>
</clipPath>
<clipPath id="clip1_0_1">
<rect width="1920" height="1449" fill="white" transform="translate(-1527 -1193)"/>
</clipPath>
</defs>
</svg>
