<svg width="175" height="175" viewBox="0 0 175 175" fill="none" xmlns="http://www.w3.org/2000/svg">
<g filter="url(#filter0_d_2355_2275)">
<path d="M56.7448 23.9521C55.9618 24.7375 54.7857 24.7394 54.0005 23.9567C53.2154 23.1739 53.2138 21.9977 53.9969 21.2123C54.7799 20.4269 55.956 20.425 56.7412 21.2078C57.5263 21.9906 57.4626 23.2322 56.7448 23.9521Z" fill="#FFCF2D"/>
<path d="M68.4565 35.6289C67.6734 36.4143 66.4973 36.4162 65.7121 35.6334C64.927 34.8506 64.9254 33.6745 65.7085 32.8891C66.4915 32.1037 67.6677 32.1017 68.4528 32.8845C69.1725 33.6021 69.1742 34.9089 68.4565 35.6289Z" fill="#FFCF2D"/>
<path d="M80.1026 47.2402C79.3196 48.0256 78.1434 48.0275 77.3583 47.2447C76.5732 46.462 76.5716 45.2858 77.3546 44.5004C78.1377 43.715 79.3138 43.7131 80.099 44.4959C80.8841 45.2786 80.8204 46.5202 80.1026 47.2402Z" fill="#FFCF2D"/>
<path d="M91.8142 58.9169C91.0312 59.7023 89.855 59.7043 89.0699 58.9215C88.2848 58.1387 88.2832 56.9626 89.0663 56.1772C89.8493 55.3918 91.0254 55.3898 91.8106 56.1726C92.5957 56.9554 92.532 58.197 91.8142 58.9169Z" fill="#FFCF2D"/>
<path d="M103.526 70.5937C102.743 71.3791 101.567 71.381 100.782 70.5983C99.9965 69.8155 99.9949 68.6393 100.778 67.8539C101.561 67.0685 102.737 67.0666 103.522 67.8494C104.242 68.5669 104.244 69.8737 103.526 70.5937Z" fill="#FFCF2D"/>
<path d="M115.238 82.2705C114.455 83.0559 113.278 83.0578 112.493 82.275C111.708 81.4922 111.707 80.3161 112.49 79.5307C113.273 78.7453 114.449 78.7433 115.234 79.5261C116.019 80.3089 115.955 81.5505 115.238 82.2705Z" fill="#FFCF2D"/>
<path d="M126.884 93.8818C126.101 94.6672 124.925 94.6691 124.139 93.8864C123.354 93.1036 123.353 91.9274 124.136 91.142C124.919 90.3566 126.095 90.3547 126.88 91.1375C127.665 91.9203 127.602 93.1619 126.884 93.8818Z" fill="#FFCF2D"/>
<path d="M138.596 105.559C137.813 106.344 136.636 106.346 135.851 105.563C135.066 104.78 135.065 103.604 135.848 102.819C136.631 102.033 137.807 102.031 138.592 102.814C139.377 103.597 139.313 104.839 138.596 105.559Z" fill="#FFCF2D"/>
<path d="M150.307 117.234C149.524 118.02 148.348 118.022 147.563 117.239C146.778 116.456 146.776 115.28 147.559 114.495C148.342 113.709 149.518 113.707 150.304 114.49C151.023 115.208 151.025 116.514 150.307 117.234Z" fill="#FFCF2D"/>
<path d="M47.0218 33.7041C46.2388 34.4895 45.0626 34.4914 44.2775 33.7086C43.4924 32.9258 43.4908 31.7497 44.2738 30.9643C45.0569 30.1789 46.233 30.1769 47.0182 30.9597C47.8033 31.7425 47.8049 32.9187 47.0218 33.7041Z" fill="#FFCF2D"/>
<path d="M58.7334 45.3808C57.9504 46.1662 56.7742 46.1682 55.9891 45.3854C55.204 44.6026 55.2024 43.4264 55.9854 42.641C56.7685 41.8557 57.9446 41.8537 58.7298 42.6365C59.4495 43.354 59.5165 44.5954 58.7334 45.3808Z" fill="#FFCF2D"/>
<path d="M70.3797 56.9921C69.5966 57.7775 68.4205 57.7795 67.6353 56.9967C66.8502 56.2139 66.8486 55.0378 67.6317 54.2524C68.4147 53.467 69.5909 53.465 70.376 54.2478C71.1611 55.0306 71.1627 56.2067 70.3797 56.9921Z" fill="#FFCF2D"/>
<path d="M82.0915 68.6689C81.3084 69.4543 80.1323 69.4563 79.3471 68.6735C78.562 67.8907 78.5604 66.7145 79.3435 65.9291C80.1265 65.1437 81.3027 65.1418 82.0878 65.9246C82.8729 66.7074 82.8745 67.8835 82.0915 68.6689Z" fill="#FFCF2D"/>
<path d="M93.803 80.3457C93.02 81.1311 91.8438 81.133 91.0587 80.3502C90.2735 79.5674 90.272 78.3913 91.055 77.6059C91.8381 76.8205 93.0142 76.8185 93.7993 77.6013C94.5191 78.3189 94.5861 79.5603 93.803 80.3457Z" fill="#FFCF2D"/>
<path d="M105.515 92.0224C104.732 92.8078 103.555 92.8098 102.77 92.027C101.985 91.2442 101.984 90.068 102.767 89.2826C103.55 88.4973 104.726 88.4953 105.511 89.2781C106.296 90.0609 106.298 91.237 105.515 92.0224Z" fill="#FFCF2D"/>
<path d="M117.161 103.634C116.378 104.419 115.202 104.421 114.417 103.638C113.631 102.856 113.63 101.679 114.413 100.894C115.196 100.109 116.372 100.107 117.157 100.889C117.942 101.672 117.944 102.848 117.161 103.634Z" fill="#FFCF2D"/>
<path d="M128.873 115.311C128.09 116.096 126.913 116.098 126.128 115.315C125.343 114.532 125.342 113.356 126.125 112.571C126.908 111.785 128.084 111.783 128.869 112.566C129.654 113.349 129.656 114.525 128.873 115.311Z" fill="#FFCF2D"/>
<path d="M140.584 126.987C139.801 127.773 138.625 127.775 137.84 126.992C137.055 126.209 137.053 125.033 137.836 124.247C138.619 123.462 139.795 123.46 140.581 124.243C141.3 124.96 141.367 126.202 140.584 126.987Z" fill="#FFCF2D"/>
<path d="M76.1251 4.51363C75.342 5.29902 74.1659 5.30097 73.3808 4.51818C72.5956 3.73539 72.5941 2.55925 73.3771 1.77386C74.1602 0.98846 75.3363 0.986508 76.1214 1.7693C76.9066 2.55209 76.9081 3.72823 76.1251 4.51363Z" fill="#FFCF2D"/>
<path d="M87.8367 16.1904C87.0537 16.9758 85.8775 16.9777 85.0924 16.1949C84.3072 15.4121 84.3057 14.236 85.0887 13.4506C85.8718 12.6652 87.0479 12.6633 87.833 13.4461C88.5527 14.1636 88.6197 15.405 87.8367 16.1904Z" fill="#FFCF2D"/>
<path d="M99.4829 27.8017C98.6999 28.5871 97.5237 28.5891 96.7386 27.8063C95.9535 27.0235 95.9519 25.8473 96.735 25.0619C97.518 24.2765 98.7596 24.3398 99.4793 25.0574C100.264 25.8402 100.266 27.0163 99.4829 27.8017Z" fill="#FFCF2D"/>
<path d="M111.195 39.4785C110.412 40.2639 109.235 40.2658 108.45 39.483C107.665 38.7002 107.664 37.5241 108.447 36.7387C109.23 35.9533 110.471 36.0166 111.191 36.7341C111.911 37.4517 111.978 38.6931 111.195 39.4785Z" fill="#FFCF2D"/>
<path d="M122.906 51.1552C122.123 51.9406 120.947 51.9426 120.162 51.1598C119.377 50.377 119.375 49.2009 120.158 48.4155C120.941 47.6301 122.117 47.6281 122.903 48.4109C123.622 49.1285 123.689 50.3698 122.906 51.1552Z" fill="#FFCF2D"/>
<path d="M134.618 62.832C133.835 63.6174 132.659 63.6193 131.874 62.8365C131.089 62.0537 131.087 60.8776 131.87 60.0922C132.653 59.3068 133.829 59.3049 134.614 60.0877C135.4 60.8704 135.401 62.0466 134.618 62.832Z" fill="#FFCF2D"/>
<path d="M146.264 74.4433C145.481 75.2287 144.305 75.2307 143.52 74.4479C142.735 73.6651 142.733 72.4889 143.516 71.7035C144.299 70.9181 145.475 70.9162 146.261 71.699C147.046 72.4818 147.047 73.6579 146.264 74.4433Z" fill="#FFCF2D"/>
<path d="M157.976 86.1201C157.193 86.9055 156.017 86.9074 155.232 86.1246C154.446 85.3418 154.445 84.1657 155.228 83.3803C156.011 82.5949 157.187 82.593 157.972 83.3757C158.757 84.1585 158.759 85.3347 157.976 86.1201Z" fill="#FFCF2D"/>
<path d="M169.687 97.7968C168.904 98.5822 167.728 98.5842 166.943 97.8014C166.158 97.0186 166.156 95.8425 166.939 95.0571C167.723 94.2717 168.899 94.2697 169.684 95.0525C170.404 95.7701 170.471 97.0114 169.687 97.7968Z" fill="#FFCF2D"/>
<path d="M66.4024 14.2656C65.6193 15.051 64.4432 15.0529 63.658 14.2701C62.8729 13.4873 62.9366 12.2458 63.6544 11.5258C64.4374 10.7404 65.6136 10.7385 66.3987 11.5213C67.1839 12.304 67.1854 13.4802 66.4024 14.2656Z" fill="#FFCF2D"/>
<path d="M78.114 25.9423C77.3309 26.7277 76.1548 26.7297 75.3697 25.9469C74.5845 25.1641 74.5829 23.988 75.366 23.2026C76.149 22.4172 77.3252 22.4152 78.1103 23.198C78.83 23.9156 78.897 25.1569 78.114 25.9423Z" fill="#FFCF2D"/>
<path d="M89.7602 37.5537C88.9772 38.3391 87.801 38.341 87.0159 37.5582C86.2308 36.7754 86.2292 35.5993 87.0122 34.8139C87.7953 34.0285 88.9714 34.0265 89.7566 34.8093C90.5417 35.5921 90.5433 36.7683 89.7602 37.5537Z" fill="#FFCF2D"/>
<path d="M101.472 49.2304C100.689 50.0158 99.5128 50.0178 98.7277 49.235C97.9426 48.4522 97.941 47.276 98.724 46.4907C99.5071 45.7053 100.683 45.7033 101.468 46.4861C102.253 47.2689 102.255 48.445 101.472 49.2304Z" fill="#FFCF2D"/>
<path d="M113.184 60.9072C112.401 61.6926 111.224 61.6945 110.439 60.9117C109.654 60.1289 109.653 58.9528 110.436 58.1674C111.219 57.382 112.395 57.3801 113.18 58.1629C113.9 58.8804 113.967 60.1218 113.184 60.9072Z" fill="#FFCF2D"/>
<path d="M124.895 72.5839C124.112 73.3693 122.936 73.3713 122.151 72.5885C121.366 71.8057 121.364 70.6296 122.147 69.8442C122.93 69.0588 124.106 69.0568 124.892 69.8396C125.677 70.6224 125.678 71.7985 124.895 72.5839Z" fill="#FFCF2D"/>
<path d="M136.541 84.1953C135.758 84.9807 134.582 84.9826 133.797 84.1998C133.012 83.417 133.01 82.2409 133.793 81.4555C134.576 80.6701 135.753 80.6682 136.538 81.4509C137.323 82.2337 137.324 83.4099 136.541 84.1953Z" fill="#FFCF2D"/>
<path d="M148.253 95.872C147.47 96.6574 146.294 96.6594 145.509 95.8766C144.724 95.0938 144.722 93.9176 145.505 93.1323C146.288 92.3469 147.464 92.3449 148.25 93.1277C149.035 93.9105 149.036 95.0866 148.253 95.872Z" fill="#FFCF2D"/>
<path d="M159.965 107.548C159.182 108.333 158.006 108.335 157.22 107.552C156.435 106.77 156.434 105.593 157.217 104.808C158 104.023 159.176 104.021 159.961 104.803C160.681 105.521 160.748 106.762 159.965 107.548Z" fill="#FFCF2D"/>
<path d="M37.3642 43.3906C36.5811 44.176 35.405 44.1779 34.6198 43.3951C33.8347 42.6123 33.8331 41.4362 34.6162 40.6508C35.3992 39.8654 36.5754 39.8635 37.3605 40.6463C38.1456 41.429 38.082 42.6706 37.3642 43.3906Z" fill="#FFCF2D"/>
<path d="M49.0758 55.0673C48.2927 55.8527 47.1166 55.8547 46.3315 55.0719C45.5463 54.2891 45.5447 53.113 46.3278 52.3276C47.1108 51.5422 48.287 51.5402 49.0721 52.323C49.7918 53.0406 49.7936 54.3474 49.0758 55.0673Z" fill="#FFCF2D"/>
<path d="M60.722 66.6787C59.939 67.4641 58.7628 67.466 57.9777 66.6832C57.1926 65.9004 57.191 64.7243 57.974 63.9389C58.7571 63.1535 59.9332 63.1515 60.7184 63.9343C61.5035 64.7171 61.4398 65.9587 60.722 66.6787Z" fill="#FFCF2D"/>
<path d="M72.4338 78.3554C71.6508 79.1408 70.4746 79.1428 69.6895 78.36C68.9043 77.5772 68.9028 76.401 69.6858 75.6157C70.4689 74.8303 71.645 74.8283 72.4301 75.6111C73.2153 76.3939 73.1516 77.6355 72.4338 78.3554Z" fill="#FFCF2D"/>
<path d="M84.1454 90.0322C83.3623 90.8176 82.1862 90.8195 81.401 90.0367C80.6159 89.2539 80.6143 88.0778 81.3974 87.2924C82.1804 86.507 83.3566 86.5051 84.1417 87.2879C84.8614 88.0054 84.8631 89.3122 84.1454 90.0322Z" fill="#FFCF2D"/>
<path d="M95.857 101.709C95.074 102.494 93.8978 102.496 93.1127 101.713C92.3276 100.931 92.326 99.7546 93.109 98.9692C93.8921 98.1838 95.0682 98.1818 95.8534 98.9646C96.6385 99.7474 96.5748 100.989 95.857 101.709Z" fill="#FFCF2D"/>
<path d="M107.503 113.32C106.72 114.106 105.544 114.108 104.759 113.325C103.974 112.542 103.972 111.366 104.755 110.58C105.538 109.795 106.714 109.793 107.5 110.576C108.285 111.359 108.221 112.6 107.503 113.32Z" fill="#FFCF2D"/>
<path d="M119.215 124.997C118.432 125.782 117.256 125.784 116.471 125.002C115.686 124.219 115.684 123.043 116.467 122.257C117.25 121.472 118.426 121.47 119.211 122.253C119.996 123.035 119.933 124.277 119.215 124.997Z" fill="#FFCF2D"/>
<path d="M130.927 136.674C130.144 137.459 128.967 137.461 128.182 136.678C127.397 135.896 127.396 134.719 128.179 133.934C128.962 133.149 130.138 133.147 130.923 133.929C131.643 134.647 131.644 135.954 130.927 136.674Z" fill="#FFCF2D"/>
<path d="M27.6414 53.1425C26.8583 53.9279 25.6822 53.9299 24.8971 53.1471C24.1119 52.3643 24.1104 51.1882 24.8934 50.4028C25.6764 49.6174 26.8526 49.6154 27.6377 50.3982C28.4229 51.181 28.4244 52.3571 27.6414 53.1425Z" fill="#FFCF2D"/>
<path d="M39.3532 64.8193C38.5701 65.6047 37.394 65.6066 36.6089 64.8238C35.8237 64.0411 35.8221 62.8649 36.6052 62.0795C37.3882 61.2941 38.5644 61.2922 39.3495 62.075C40.0692 62.7925 40.1362 64.0339 39.3532 64.8193Z" fill="#FFCF2D"/>
<path d="M50.9994 76.4306C50.2163 77.216 49.0402 77.218 48.255 76.4352C47.4699 75.6524 47.4683 74.4762 48.2514 73.6908C49.0344 72.9055 50.2106 72.9035 50.9957 73.6863C51.7808 74.4691 51.7824 75.6452 50.9994 76.4306Z" fill="#FFCF2D"/>
<path d="M59.9667 88.1119C60.7255 88.8685 61.9542 88.8665 62.711 88.1074C63.4678 87.3483 63.4662 86.1196 62.7074 85.363C61.9485 84.6065 60.7199 84.6085 59.963 85.3676C59.2062 86.1267 59.2079 87.3554 59.9667 88.1119Z" fill="#FFCF2D"/>
<path d="M74.4227 99.7841C73.6396 100.57 72.4635 100.571 71.6784 99.7887C70.8932 99.0059 70.8917 97.8298 71.6747 97.0444C72.4578 96.259 73.6339 96.257 74.419 97.0398C75.1387 97.7574 75.2057 98.9987 74.4227 99.7841Z" fill="#FFCF2D"/>
<path d="M86.1344 111.461C85.3513 112.246 84.1752 112.248 83.39 111.465C82.6049 110.683 82.6033 109.507 83.3864 108.721C84.1694 107.936 85.3456 107.934 86.1307 108.717C86.9158 109.499 86.9174 110.675 86.1344 111.461Z" fill="#FFCF2D"/>
<path d="M97.7806 123.072C96.9975 123.858 95.8214 123.86 95.0362 123.077C94.2511 122.294 94.2495 121.118 95.0326 120.332C95.8156 119.547 96.9918 119.545 97.7769 120.328C98.562 121.111 98.5636 122.287 97.7806 123.072Z" fill="#FFCF2D"/>
<path d="M106.748 134.754C107.507 135.51 108.735 135.508 109.492 134.749C110.249 133.99 110.247 132.761 109.489 132.005C108.73 131.248 107.501 131.25 106.744 132.009C105.987 132.768 105.989 133.997 106.748 134.754Z" fill="#FFCF2D"/>
<path d="M121.204 146.426C120.421 147.211 119.245 147.213 118.46 146.43C117.674 145.648 117.673 144.471 118.456 143.686C119.239 142.901 120.415 142.899 121.2 143.681C121.92 144.399 121.987 145.64 121.204 146.426Z" fill="#FFCF2D"/>
<path d="M17.9184 62.8945C17.1353 63.6799 15.9592 63.6818 15.174 62.899C14.3889 62.1162 14.3873 60.9401 15.1704 60.1547C15.9534 59.3693 17.1296 59.3674 17.9147 60.1502C18.6998 60.933 18.7014 62.1091 17.9184 62.8945Z" fill="#FFCF2D"/>
<path d="M29.63 74.5712C28.8469 75.3566 27.6708 75.3586 26.8856 74.5758C26.1005 73.793 26.0989 72.6169 26.882 71.8315C27.665 71.0461 28.8412 71.0441 29.6263 71.8269C30.346 72.5445 30.413 73.7859 29.63 74.5712Z" fill="#FFCF2D"/>
<path d="M41.2762 86.1826C40.4931 86.968 39.317 86.9699 38.5318 86.1871C37.7467 85.4043 37.7451 84.2282 38.5282 83.4428C39.3112 82.6574 40.4874 82.6555 41.2725 83.4382C42.0576 84.221 42.0592 85.3972 41.2762 86.1826Z" fill="#FFCF2D"/>
<path d="M52.9879 97.8593C52.2049 98.6447 51.0288 98.6467 50.2436 97.8639C49.4585 97.0811 49.4569 95.905 50.24 95.1196C51.023 94.3342 52.1991 94.3322 52.9843 95.115C53.7694 95.8978 53.771 97.0739 52.9879 97.8593Z" fill="#FFCF2D"/>
<path d="M64.6995 109.536C63.9165 110.321 62.7404 110.323 61.9552 109.541C61.1701 108.758 61.1685 107.582 61.9516 106.796C62.7346 106.011 63.9108 106.009 64.6959 106.792C65.4156 107.509 65.4826 108.751 64.6995 109.536Z" fill="#FFCF2D"/>
<path d="M76.4113 121.213C75.6282 121.998 74.4521 122 73.667 121.217C72.8818 120.435 72.8803 119.258 73.6633 118.473C74.4463 117.688 75.6225 117.686 76.4076 118.469C77.1928 119.251 77.1943 120.427 76.4113 121.213Z" fill="#FFCF2D"/>
<path d="M88.0575 132.824C87.2745 133.61 86.0983 133.612 85.3132 132.829C84.5281 132.046 84.5265 130.87 85.3095 130.084C86.0926 129.299 87.2687 129.297 88.0539 130.08C88.839 130.863 88.8406 132.039 88.0575 132.824Z" fill="#FFCF2D"/>
<path d="M99.7691 144.501C98.9861 145.286 97.81 145.288 97.0248 144.505C96.2397 143.723 96.2381 142.547 97.0211 141.761C97.8042 140.976 98.9803 140.974 99.7655 141.757C100.551 142.539 100.552 143.716 99.7691 144.501Z" fill="#FFCF2D"/>
<path d="M111.481 156.178C110.698 156.963 109.522 156.965 108.736 156.182C107.951 155.399 107.95 154.223 108.733 153.438C109.516 152.653 110.692 152.651 111.477 153.433C112.197 154.151 112.264 155.392 111.481 156.178Z" fill="#FFCF2D"/>
<path d="M8.26108 72.581C7.47803 73.3664 6.30189 73.3684 5.51675 72.5856C4.73161 71.8028 4.73004 70.6266 5.51309 69.8412C6.29614 69.0558 7.47228 69.0539 8.25742 69.8367C9.04255 70.6195 8.97887 71.8611 8.26108 72.581Z" fill="#FFCF2D"/>
<path d="M19.9728 84.2578C19.1898 85.0432 18.0136 85.0451 17.2285 84.2623C16.4433 83.4795 16.4418 82.3034 17.2248 81.518C18.0079 80.7326 19.184 80.7306 19.9691 81.5134C20.6889 82.231 20.6906 83.5378 19.9728 84.2578Z" fill="#FFCF2D"/>
<path d="M31.619 95.8691C30.836 96.6545 29.6599 96.6564 28.8747 95.8736C28.0896 95.0909 28.088 93.9147 28.8711 93.1293C29.6541 92.3439 30.8302 92.342 31.6154 93.1248C32.4005 93.9076 32.3368 95.1491 31.619 95.8691Z" fill="#FFCF2D"/>
<path d="M43.3307 107.546C42.5476 108.331 41.3715 108.333 40.5863 107.55C39.8012 106.768 39.7996 105.591 40.5827 104.806C41.3657 104.021 42.5419 104.019 43.327 104.802C44.1121 105.584 44.0485 106.826 43.3307 107.546Z" fill="#FFCF2D"/>
<path d="M55.0423 119.223C54.2592 120.008 53.0831 120.01 52.2979 119.227C51.5128 118.444 51.5112 117.268 52.2943 116.483C53.0773 115.697 54.2535 115.695 55.0386 116.478C55.7583 117.196 55.76 118.503 55.0423 119.223Z" fill="#FFCF2D"/>
<path d="M66.754 130.899C65.971 131.685 64.7949 131.687 64.0097 130.904C63.2246 130.121 63.223 128.945 64.0061 128.16C64.7891 127.374 65.9653 127.372 66.7504 128.155C67.5355 128.938 67.4718 130.179 66.754 130.899Z" fill="#FFCF2D"/>
<path d="M78.4002 142.511C77.6172 143.296 76.4411 143.298 75.6559 142.515C74.8708 141.732 74.8692 140.556 75.6523 139.771C76.4353 138.986 77.6114 138.984 78.3966 139.766C79.1817 140.549 79.118 141.791 78.4002 142.511Z" fill="#FFCF2D"/>
<path d="M90.1119 154.187C89.3289 154.973 88.1527 154.975 87.3676 154.192C86.5824 153.409 86.5809 152.233 87.3639 151.448C88.147 150.662 89.3231 150.66 90.1082 151.443C90.8934 152.226 90.8297 153.468 90.1119 154.187Z" fill="#FFCF2D"/>
<path d="M101.824 165.864C101.041 166.65 99.8645 166.652 99.0793 165.869C98.2942 165.086 98.2926 163.91 99.0757 163.124C99.8587 162.339 101.035 162.337 101.82 163.12C102.54 163.837 102.541 165.144 101.824 165.864Z" fill="#FFCF2D"/>
</g>
<defs>
<filter id="filter0_d_2355_2275" x="0.92688" y="1.18359" width="173.323" height="173.271" filterUnits="userSpaceOnUse" color-interpolation-filters="sRGB">
<feFlood flood-opacity="0" result="BackgroundImageFix"/>
<feColorMatrix in="SourceAlpha" type="matrix" values="0 0 0 0 0 0 0 0 0 0 0 0 0 0 0 0 0 0 127 0" result="hardAlpha"/>
<feOffset dy="4"/>
<feGaussianBlur stdDeviation="2"/>
<feComposite in2="hardAlpha" operator="out"/>
<feColorMatrix type="matrix" values="0 0 0 0 0 0 0 0 0 0 0 0 0 0 0 0 0 0 0.25 0"/>
<feBlend mode="normal" in2="BackgroundImageFix" result="effect1_dropShadow_2355_2275"/>
<feBlend mode="normal" in="SourceGraphic" in2="effect1_dropShadow_2355_2275" result="shape"/>
</filter>
</defs>
</svg>
