<svg width="22" height="21" viewBox="0 0 22 21" fill="none" xmlns="http://www.w3.org/2000/svg">
<path fill-rule="evenodd" clip-rule="evenodd" d="M1.09961 0.992188C1.65189 0.992188 2.09961 1.4399 2.09961 1.99219V6.4285C3.75764 3.20147 7.11959 0.992188 10.9996 0.992188C15.3552 0.992188 19.058 3.77632 20.4303 7.65894C20.6144 8.17966 20.3414 8.75098 19.8207 8.93503C19.3 9.11907 18.7287 8.84615 18.5446 8.32543C17.4459 5.21691 14.4813 2.99219 10.9996 2.99219C8.03957 2.99219 5.45326 4.60018 4.06955 6.99219H7.09957C7.65186 6.99219 8.09957 7.4399 8.09957 7.99219C8.09957 8.54447 7.65186 8.99219 7.09957 8.99219H1.09961C0.547325 8.99219 0.0996094 8.54447 0.0996094 7.99219V1.99219C0.0996094 1.4399 0.547325 0.992188 1.09961 0.992188Z" fill="#424551"/>
<path fill-rule="evenodd" clip-rule="evenodd" d="M2.17664 13.0493C2.69736 12.8653 3.26868 13.1382 3.45273 13.6589C4.55144 16.7675 7.51608 18.9922 10.9978 18.9922C13.9578 18.9922 16.5441 17.3842 17.9278 14.9922H14.8978C14.3455 14.9922 13.8978 14.5445 13.8978 13.9922C13.8978 13.4399 14.3455 12.9922 14.8978 12.9922H20.8977C21.45 12.9922 21.8977 13.4399 21.8977 13.9922V19.9922C21.8977 20.5445 21.45 20.9922 20.8977 20.9922C20.3455 20.9922 19.8977 20.5445 19.8977 19.9922V15.5559C18.2397 18.7829 14.8778 20.9922 10.9978 20.9922C6.64215 20.9922 2.93936 18.2081 1.56705 14.3254C1.383 13.8047 1.65593 13.2334 2.17664 13.0493Z" fill="#424551"/>
</svg>
