<svg width="20" height="20" viewBox="0 0 20 20" fill="none" xmlns="http://www.w3.org/2000/svg">
<path fill-rule="evenodd" clip-rule="evenodd" d="M0.833374 2.91634C0.833374 1.76575 1.76611 0.833008 2.91671 0.833008H7.08337C8.23397 0.833008 9.16671 1.76575 9.16671 2.91634V7.08301C9.16671 8.2336 8.23397 9.16634 7.08337 9.16634H2.91671C1.76611 9.16634 0.833374 8.2336 0.833374 7.08301V2.91634ZM2.91671 2.49967C2.68659 2.49967 2.50004 2.68622 2.50004 2.91634V7.08301C2.50004 7.31313 2.68659 7.49967 2.91671 7.49967H7.08337C7.31349 7.49967 7.50004 7.31313 7.50004 7.08301V2.91634C7.50004 2.68622 7.31349 2.49967 7.08337 2.49967H2.91671Z" fill="#424551"/>
<path fill-rule="evenodd" clip-rule="evenodd" d="M0.833374 12.9163C0.833374 11.7657 1.76611 10.833 2.91671 10.833H7.08337C8.23397 10.833 9.16671 11.7657 9.16671 12.9163V17.083C9.16671 18.2336 8.23397 19.1663 7.08337 19.1663H2.91671C1.76611 19.1663 0.833374 18.2336 0.833374 17.083V12.9163ZM2.91671 12.4997C2.68659 12.4997 2.50004 12.6862 2.50004 12.9163V17.083C2.50004 17.3131 2.68659 17.4997 2.91671 17.4997H7.08337C7.31349 17.4997 7.50004 17.3131 7.50004 17.083V12.9163C7.50004 12.6862 7.31349 12.4997 7.08337 12.4997H2.91671Z" fill="#424551"/>
<path fill-rule="evenodd" clip-rule="evenodd" d="M10.8334 2.91634C10.8334 1.76575 11.7661 0.833008 12.9167 0.833008H17.0834C18.234 0.833008 19.1667 1.76575 19.1667 2.91634V7.08301C19.1667 8.2336 18.234 9.16634 17.0834 9.16634H12.9167C11.7661 9.16634 10.8334 8.2336 10.8334 7.08301V2.91634ZM12.9167 2.49967C12.6866 2.49967 12.5 2.68622 12.5 2.91634V7.08301C12.5 7.31313 12.6866 7.49967 12.9167 7.49967H17.0834C17.3135 7.49967 17.5 7.31313 17.5 7.08301V2.91634C17.5 2.68622 17.3135 2.49967 17.0834 2.49967H12.9167Z" fill="#424551"/>
<path fill-rule="evenodd" clip-rule="evenodd" d="M10.8334 12.9163C10.8334 11.7657 11.7661 10.833 12.9167 10.833H17.0834C18.234 10.833 19.1667 11.7657 19.1667 12.9163V17.083C19.1667 18.2336 18.234 19.1663 17.0834 19.1663H12.9167C11.7661 19.1663 10.8334 18.2336 10.8334 17.083V12.9163ZM12.9167 12.4997C12.6866 12.4997 12.5 12.6862 12.5 12.9163V17.083C12.5 17.3131 12.6866 17.4997 12.9167 17.4997H17.0834C17.3135 17.4997 17.5 17.3131 17.5 17.083V12.9163C17.5 12.6862 17.3135 12.4997 17.0834 12.4997H12.9167Z" fill="#424551"/>
</svg>
